<?xml version="1.0" encoding="UTF-8"?>
<!DOCTYPE svg PUBLIC "-//W3C//DTD SVG 1.1//EN" "http://www.w3.org/Graphics/SVG/1.1/DTD/svg11.dtd">
<svg xmlns="http://www.w3.org/2000/svg" version="1.1" width="160px" height="160px" style="shape-rendering:geometricPrecision; text-rendering:geometricPrecision; image-rendering:optimizeQuality; fill-rule:evenodd; clip-rule:evenodd" xmlns:xlink="http://www.w3.org/1999/xlink">
<g><path style="opacity:0.734" fill="#fcf3f0" d="M 63.5,-0.5 C 72.8333,-0.5 82.1667,-0.5 91.5,-0.5C 92.3057,3.25203 94.4723,4.25203 98,2.5C 99.6667,3.5 101.333,4.5 103,5.5C 106.836,3.61118 111.003,2.94451 115.5,3.5C 115.5,4.83333 115.5,6.16667 115.5,7.5C 118.167,7.5 120.833,7.5 123.5,7.5C 123.5,8.83333 123.5,10.1667 123.5,11.5C 126.167,11.5 128.833,11.5 131.5,11.5C 131.5,12.8333 131.5,14.1667 131.5,15.5C 132.833,15.5 134.167,15.5 135.5,15.5C 135.5,16.8333 135.5,18.1667 135.5,19.5C 138.062,20.3715 140.728,20.3715 143.5,19.5C 143.5,20.8333 143.5,22.1667 143.5,23.5C 148.833,24.1667 148.833,24.8333 143.5,25.5C 142.325,25.281 141.325,25.6143 140.5,26.5C 137.472,30.3612 134.639,34.3612 132,38.5C 131.261,39.5742 130.261,40.2409 129,40.5C 122.57,37.3712 116.404,33.8712 110.5,30C 104.263,29.4208 98.2633,28.0875 92.5,26C 91.5939,24.3005 91.2606,22.4672 91.5,20.5C 89.4862,20.6085 87.8195,19.9418 86.5,18.5C 87.4352,23.6723 85.4352,25.839 80.5,25C 79.4063,23.2197 78.4063,21.3864 77.5,19.5C 76.8243,20.6016 76.1577,21.6016 75.5,22.5C 74.1667,22.8333 74.1667,23.1667 75.5,23.5C 61.3719,25.9121 47.2053,29.5787 33,34.5C 30.9264,37.0779 28.4264,39.0779 25.5,40.5C 22.895,39.2305 20.5616,37.5639 18.5,35.5C 18.6495,34.448 18.4828,33.448 18,32.5C 15.7304,31.2728 13.897,29.6061 12.5,27.5C 11.6143,26.675 11.281,25.675 11.5,24.5C 7.5,24.5 3.5,24.5 -0.5,24.5C -0.5,24.1667 -0.5,23.8333 -0.5,23.5C 3.5,23.5 7.5,23.5 11.5,23.5C 11.5,22.1667 11.5,20.8333 11.5,19.5C 15.9015,20.1304 19.5682,18.7971 22.5,15.5C 23.4287,14.3112 23.762,12.9778 23.5,11.5C 25.451,11.2267 26.951,11.8934 28,13.5C 29.0113,12.6634 30.1779,12.33 31.5,12.5C 31.5,10.8333 31.5,9.16667 31.5,7.5C 33.451,7.22672 34.951,7.89339 36,9.5C 38.0715,8.47521 40.2381,7.64188 42.5,7C 43.3366,5.98873 43.67,4.82207 43.5,3.5C 44.8333,3.5 46.1667,3.5 47.5,3.5C 47.238,4.97782 47.5713,6.31116 48.5,7.5C 49.4255,6.35945 50.2588,6.35945 51,7.5C 51.49,6.20677 51.6567,4.87344 51.5,3.5C 54.4313,2.9943 57.2646,2.9943 60,3.5C 62.3751,3.18219 63.5417,1.84886 63.5,-0.5 Z M 115.5,7.5 C 115.541,11.2434 114.874,11.4101 113.5,8C 114.094,7.53566 114.761,7.36899 115.5,7.5 Z M 91.5,28.5 C 89.312,29.6227 86.9787,29.6227 84.5,28.5C 85.209,27.596 86.209,27.2627 87.5,27.5C 87.5,26.1667 87.5,24.8333 87.5,23.5C 88.5,23.5 89.5,23.5 90.5,23.5C 90.366,25.2915 90.6993,26.9582 91.5,28.5 Z M 81.5,28.5 C 79.2646,28.7947 77.2646,28.4614 75.5,27.5C 75.9709,26.0992 76.6376,24.7658 77.5,23.5C 78.1517,25.808 79.485,27.4747 81.5,28.5 Z"/></g>
<g><path style="opacity:1" fill="#ffae9e" d="M 76.5,4.5 C 81.8333,4.5 87.1667,4.5 92.5,4.5C 92.5,5.83333 92.5,7.16667 92.5,8.5C 90.1667,8.5 87.8333,8.5 85.5,8.5C 87.3691,7.83538 89.3691,7.16871 91.5,6.5C 86.3489,5.83316 81.3489,5.1665 76.5,4.5 Z"/></g>
<g><path style="opacity:1" fill="#ff7558" d="M 101.5,8.5 C 101.672,9.49162 101.338,10.1583 100.5,10.5C 99.8333,10.5 99.5,10.8333 99.5,11.5C 98.5084,11.3284 97.8417,11.6618 97.5,12.5C 96.8333,12.5 96.5,12.8333 96.5,13.5C 94.8792,10.6333 95.5459,8.3 98.5,6.5C 99.2652,7.61191 100.265,8.27858 101.5,8.5 Z"/></g>
<g><path style="opacity:1" fill="#ff7355" d="M 76.5,4.5 C 81.3489,5.1665 86.3489,5.83316 91.5,6.5C 89.3691,7.16871 87.3691,7.83538 85.5,8.5C 84.9569,8.55999 84.6236,8.89333 84.5,9.5C 88.4661,10.9422 90.6328,13.6089 91,17.5C 89.8932,18.7119 89.3932,18.3786 89.5,16.5C 89.1667,16.5 88.8333,16.5 88.5,16.5C 87.5244,15.1851 86.5244,13.8518 85.5,12.5C 84.513,15.7683 84.1796,19.1016 84.5,22.5C 83.5,22.5 82.5,22.5 81.5,22.5C 81.6646,19.4816 81.498,16.4816 81,13.5C 79.6218,15.2134 77.9552,16.5467 76,17.5C 75.3076,16.9747 74.8076,16.3081 74.5,15.5C 77.1667,13.1667 79.8333,10.8333 82.5,8.5C 79.9135,7.51998 77.2469,7.18665 74.5,7.5C 74.2852,5.82124 74.9519,4.82124 76.5,4.5 Z"/></g>
<g><path style="opacity:1" fill="#ffcec3" d="M 101.5,8.5 C 102.5,8.5 103.5,8.5 104.5,8.5C 104.5,9.16667 104.167,9.5 103.5,9.5C 102.833,9.5 102.5,9.83333 102.5,10.5C 103.914,12.1385 103.58,13.4718 101.5,14.5C 104.476,15.6584 107.476,16.6584 110.5,17.5C 110.737,18.791 110.404,19.791 109.5,20.5C 109.53,19.5028 109.03,18.8361 108,18.5C 105.923,17.9828 103.923,17.3161 102,16.5C 100.698,19.3751 99.8647,22.3751 99.5,25.5C 98.8333,24.8333 98.1667,24.1667 97.5,23.5C 98.8069,22.1984 98.8069,20.865 97.5,19.5C 99.542,18.4968 99.8754,17.1634 98.5,15.5C 98.9767,14.5224 99.6433,13.6891 100.5,13C 100.272,12.6012 99.9382,12.4346 99.5,12.5C 99.5,12.1667 99.5,11.8333 99.5,11.5C 100.167,11.5 100.5,11.1667 100.5,10.5C 101.338,10.1583 101.672,9.49162 101.5,8.5 Z"/></g>
<g><path style="opacity:1" fill="#ff7557" d="M 104.5,8.5 C 105.167,8.5 105.833,8.5 106.5,8.5C 107.12,10.9767 108.12,10.9767 109.5,8.5C 110.086,8.70931 110.586,9.04265 111,9.5C 110.929,12.4234 110.763,15.0901 110.5,17.5C 107.476,16.6584 104.476,15.6584 101.5,14.5C 103.58,13.4718 103.914,12.1385 102.5,10.5C 103.167,10.5 103.5,10.1667 103.5,9.5C 104.167,9.5 104.5,9.16667 104.5,8.5 Z"/></g>
<g><path style="opacity:1" fill="#ff7659" d="M 42.5,9.5 C 44.143,9.48015 45.4763,10.1468 46.5,11.5C 48.0709,10.6906 49.7376,10.3573 51.5,10.5C 52.6242,14.7849 53.6242,19.1183 54.5,23.5C 53.2212,26.3199 51.2212,26.9865 48.5,25.5C 51.8383,22.3097 52.1716,18.6431 49.5,14.5C 47.1817,13.1656 45.515,13.8323 44.5,16.5C 46.7368,17.1321 48.4035,18.4654 49.5,20.5C 49.1667,20.8333 48.8333,21.1667 48.5,21.5C 47.1667,20.5 45.8333,19.5 44.5,18.5C 44.1667,18.8333 43.8333,19.1667 43.5,19.5C 44.7853,22.0205 45.4519,24.6872 45.5,27.5C 43.5165,27.3832 41.8498,28.0499 40.5,29.5C 38.6398,25.2546 36.9732,20.9213 35.5,16.5C 36.4043,10.9512 38.5709,10.2846 42,14.5C 42.4935,12.8659 42.6602,11.1992 42.5,9.5 Z"/></g>
<g><path style="opacity:1" fill="#ff775a" d="M 68.5,4.5 C 69.5,4.5 70.5,4.5 71.5,4.5C 71.5198,6.14297 70.8532,7.4763 69.5,8.5C 70.325,9.38568 71.325,9.71901 72.5,9.5C 72.3739,11.1998 71.7073,12.6998 70.5,14C 71.7073,15.3002 72.3739,16.8002 72.5,18.5C 70.396,18.7989 68.396,18.4656 66.5,17.5C 68.0244,15.2076 67.6911,13.2076 65.5,11.5C 66.1667,10.8333 66.8333,10.1667 67.5,9.5C 65.1817,8.16559 63.515,8.83226 62.5,11.5C 64.0666,13.8961 64.8999,16.5628 65,19.5C 67.7499,20.2911 70.5832,20.2911 73.5,19.5C 73.5,20.5 73.5,21.5 73.5,22.5C 70.4212,22.7399 67.4212,22.4066 64.5,21.5C 62.1416,23.2866 59.475,24.2866 56.5,24.5C 56.5191,22.9397 56.8524,21.4397 57.5,20C 55.3346,18.2701 55.0012,16.2701 56.5,14C 54.1,10.9249 54.4333,8.09161 57.5,5.5C 57.8333,6.16667 58.1667,6.83333 58.5,7.5C 59.0946,9.87662 59.4279,12.21 59.5,14.5C 60.5237,15.8532 61.857,16.5198 63.5,16.5C 63.5,15.5 63.5,14.5 63.5,13.5C 62.325,13.719 61.325,13.3857 60.5,12.5C 61.4196,10.2143 61.4196,7.88093 60.5,5.5C 63.3854,5.8064 66.0521,5.47307 68.5,4.5 Z"/></g>
<g><path style="opacity:1" fill="#ff6b4d" d="M 97.5,12.5 C 98.1667,12.5 98.8333,12.5 99.5,12.5C 99.9382,12.4346 100.272,12.6012 100.5,13C 99.6433,13.6891 98.9767,14.5224 98.5,15.5C 99.8754,17.1634 99.542,18.4968 97.5,19.5C 98.8069,20.865 98.8069,22.1984 97.5,23.5C 96.5,23.5 95.5,23.5 94.5,23.5C 94.5191,21.9397 94.8524,20.4397 95.5,19C 94.9777,18.0497 94.311,17.2164 93.5,16.5C 94.9935,15.8589 95.9935,14.8589 96.5,13.5C 97.1667,13.5 97.5,13.1667 97.5,12.5 Z"/></g>
<g><path style="opacity:1" fill="#ff6c4d" d="M 27.5,21.5 C 26.1007,22.8897 24.4341,23.8897 22.5,24.5C 23.463,23.6365 23.463,22.9698 22.5,22.5C 20.6675,23.2485 19.0009,24.2485 17.5,25.5C 17.1667,25 16.8333,24.5 16.5,24C 20.7087,19.4582 25.7087,16.9582 31.5,16.5C 29.6414,18.1924 27.6414,19.6924 25.5,21C 26.0944,21.4643 26.7611,21.631 27.5,21.5 Z"/></g>
<g><path style="opacity:1" fill="#ff694a" d="M 109.5,20.5 C 109.528,22.5824 108.861,24.4157 107.5,26C 104.881,25.9167 102.214,25.75 99.5,25.5C 99.8647,22.3751 100.698,19.3751 102,16.5C 103.923,17.3161 105.923,17.9828 108,18.5C 109.03,18.8361 109.53,19.5028 109.5,20.5 Z"/></g>
<g><path style="opacity:1" fill="#ffad9a" d="M 102.5,18.5 C 104.484,18.3832 106.15,19.0499 107.5,20.5C 106.975,21.1924 106.308,21.6924 105.5,22C 105.833,22.3333 106.167,22.6667 106.5,23C 105.056,23.7805 103.723,23.6139 102.5,22.5C 103.025,21.8076 103.692,21.3076 104.5,21C 103.244,20.5831 102.577,19.7498 102.5,18.5 Z"/></g>
<g><path style="opacity:1" fill="#ff7254" d="M 120.5,30.5 C 116.807,31.0557 114.14,29.7224 112.5,26.5C 111.604,27.5063 110.938,27.5063 110.5,26.5C 112.306,21.5545 114.639,16.8878 117.5,12.5C 119.432,13.1455 120.599,14.4788 121,16.5C 121.965,14.7397 123.132,14.4063 124.5,15.5C 124.023,16.4776 123.357,17.3109 122.5,18C 123.5,18.5 124.5,19 125.5,19.5C 126.281,18.2634 127.281,17.2634 128.5,16.5C 129.002,18.6441 129.502,20.9774 130,23.5C 128.5,26.5 127,29.5 125.5,32.5C 123.955,33.4519 122.288,33.7852 120.5,33.5C 120.5,32.5 120.5,31.5 120.5,30.5 Z"/></g>
<g><path style="opacity:1" fill="#ffebe7" d="M 125.5,21.5 C 126.497,21.4701 127.164,21.9701 127.5,23C 125.906,27.3143 125.239,26.8143 125.5,21.5 Z"/></g>
<g><path style="opacity:1" fill="#ffdfd8" d="M 116.5,15.5 C 117.376,15.3691 118.043,15.7025 118.5,16.5C 112.999,27.1708 112.332,26.8374 116.5,15.5 Z"/></g>
<g><path style="opacity:1" fill="#ffac99" d="M 27.5,21.5 C 28.2166,22.4606 29.3833,23.4606 31,24.5C 32.241,25.8767 32.4077,27.21 31.5,28.5C 25.6701,33.4177 22.6701,32.0843 22.5,24.5C 24.4341,23.8897 26.1007,22.8897 27.5,21.5 Z"/></g>
<g><path style="opacity:1" fill="#ffddd5" d="M 120.5,30.5 C 120.5,29.5 120.5,28.5 120.5,27.5C 118.833,27.5 117.167,27.5 115.5,27.5C 115.673,24.8205 116.673,22.4872 118.5,20.5C 118.833,20.8333 119.167,21.1667 119.5,21.5C 116.591,24.0412 117.091,25.7078 121,26.5C 121.492,25.451 121.326,24.451 120.5,23.5C 120.833,22.5 121.5,21.8333 122.5,21.5C 123.706,23.4841 123.706,25.4841 122.5,27.5C 124.924,29.7136 124.257,30.7136 120.5,30.5 Z"/></g>
<g><path style="opacity:1" fill="#ff7457" d="M 22.5,24.5 C 22.6701,32.0843 25.6701,33.4177 31.5,28.5C 32.4077,27.21 32.241,25.8767 31,24.5C 29.3833,23.4606 28.2166,22.4606 27.5,21.5C 30.936,18.6701 33.1026,19.6701 34,24.5C 35.2051,25.0712 36.3717,25.7379 37.5,26.5C 37.2907,27.086 36.9574,27.586 36.5,28C 37.9733,28.7096 38.6399,29.8762 38.5,31.5C 36.0799,31.7076 33.7466,31.3742 31.5,30.5C 30.5623,33.1569 28.5623,35.4903 25.5,37.5C 24.4063,36.132 24.7397,34.9653 26.5,34C 25.0039,33.4926 23.8373,33.9926 23,35.5C 21.244,34.5787 21.0773,33.412 22.5,32C 21.3802,30.2626 20.3802,28.4292 19.5,26.5C 20.0047,25.0815 21.0047,24.4148 22.5,24.5 Z"/></g>
<g><path style="opacity:0.897" fill="#100d0b" d="M 75.5,27.5 C 77.2646,28.4614 79.2646,28.7947 81.5,28.5C 82.5,28.5 83.5,28.5 84.5,28.5C 86.9787,29.6227 89.312,29.6227 91.5,28.5C 92.7079,29.2341 94.0413,29.5674 95.5,29.5C 95.3691,30.3764 95.7025,31.0431 96.5,31.5C 115.245,39.3018 126.079,53.3018 129,73.5C 129.396,79.8972 128.896,86.2306 127.5,92.5C 144.788,95.1171 152.788,105.117 151.5,122.5C 152.689,123.429 154.022,123.762 155.5,123.5C 155.245,127.401 155.912,131.068 157.5,134.5C 157.244,137.271 155.91,139.438 153.5,141C 148.48,143.673 143.147,145.506 137.5,146.5C 135.269,148.886 132.603,150.719 129.5,152C 123.448,152.79 117.448,152.624 111.5,151.5C 109.607,153.952 108.274,156.619 107.5,159.5C 103.833,159.5 100.167,159.5 96.5,159.5C 95.7505,157.754 94.4172,156.754 92.5,156.5C 83.9933,157.819 75.4933,157.819 67,156.5C 65.3336,157.348 63.8336,158.348 62.5,159.5C 59.8333,159.5 57.1667,159.5 54.5,159.5C 48.2693,154.24 46.6026,147.907 49.5,140.5C 44.6295,141.216 40.4628,139.883 37,136.5C 34.336,137.082 31.836,138.082 29.5,139.5C 25.1414,137.442 20.9748,135.109 17,132.5C 17.2876,136.768 15.4542,139.602 11.5,141C 7.49363,140.844 3.49363,140.344 -0.5,139.5C -0.5,138.167 -0.5,136.833 -0.5,135.5C 1.09457,133.889 2.26124,131.889 3,129.5C 3.49546,127.527 3.66212,125.527 3.5,123.5C 4.83333,123.5 6.16667,123.5 7.5,123.5C 6.18864,105.735 14.1886,95.4014 31.5,92.5C 26.2697,61.6388 38.2697,40.3054 67.5,28.5C 70.2062,28.4249 72.8728,28.0916 75.5,27.5 Z M 28.5,106.5 C 36.6841,106.537 39.8507,110.537 38,118.5C 34.09,124.262 29.4234,124.929 24,120.5C 20.9124,114.142 22.4124,109.476 28.5,106.5 Z M 126.5,106.5 C 135.685,107.194 138.519,111.861 135,120.5C 129.577,124.929 124.91,124.262 121,118.5C 119.375,112.757 121.208,108.757 126.5,106.5 Z M 133.5,136.5 C 133.462,138.521 134.129,140.687 135.5,143C 133.597,145.405 131.264,147.239 128.5,148.5C 128.448,146.43 128.281,144.097 128,141.5C 127.535,140.069 126.701,138.903 125.5,138C 128.365,137.817 131.031,137.317 133.5,136.5 Z M 118.5,139.5 C 119.93,139.421 121.264,139.754 122.5,140.5C 125.114,148.057 122.948,150.057 116,146.5C 114.916,143.341 115.75,141.008 118.5,139.5 Z M 109.5,140.5 C 110.649,140.791 111.316,141.624 111.5,143C 111.333,143.833 111.167,144.667 111,145.5C 110.392,143.846 109.892,142.179 109.5,140.5 Z"/></g>
<g><path style="opacity:1" fill="#fe6c4d" d="M 135.5,22.5 C 136.995,22.4148 137.995,23.0815 138.5,24.5C 136.518,27.8103 134.185,30.8103 131.5,33.5C 130.417,32.635 130.251,31.635 131,30.5C 133.157,28.1829 134.657,25.5162 135.5,22.5 Z"/></g>
<g><path style="opacity:0.004" fill="#a9a9a9" d="M 143.5,28.5 C 152.833,29.5 152.833,30.5 143.5,31.5C 143.5,30.5 143.5,29.5 143.5,28.5 Z"/></g>
<g><path style="opacity:0.928" fill="#ababab" d="M 86.5,18.5 C 87.8195,19.9418 89.4862,20.6085 91.5,20.5C 91.2606,22.4672 91.5939,24.3005 92.5,26C 98.2633,28.0875 104.263,29.4208 110.5,30C 116.404,33.8712 122.57,37.3712 129,40.5C 130.261,40.2409 131.261,39.5742 132,38.5C 134.639,34.3612 137.472,30.3612 140.5,26.5C 141.325,25.6143 142.325,25.281 143.5,25.5C 139.408,31.4375 135.075,37.2708 130.5,43C 128.359,42.9142 126.026,43.0809 123.5,43.5C 123.5,42.1667 123.5,40.8333 123.5,39.5C 119.773,37.4114 115.773,36.0781 111.5,35.5C 111.5,34.5 111.5,33.5 111.5,32.5C 105.947,32.5223 100.613,31.5223 95.5,29.5C 94.0413,29.5674 92.7079,29.2341 91.5,28.5C 90.6993,26.9582 90.366,25.2915 90.5,23.5C 89.5,23.5 88.5,23.5 87.5,23.5C 87.5,24.8333 87.5,26.1667 87.5,27.5C 86.209,27.2627 85.209,27.596 84.5,28.5C 83.5,28.5 82.5,28.5 81.5,28.5C 79.485,27.4747 78.1517,25.808 77.5,23.5C 76.6376,24.7658 75.9709,26.0992 75.5,27.5C 72.8728,28.0916 70.2062,28.4249 67.5,28.5C 66.8501,28.1961 66.1835,27.8627 65.5,27.5C 59.3457,29.7903 53.0123,31.6236 46.5,33C 41.3138,35.2728 36.3138,37.4395 31.5,39.5C 27.9838,44.47 24.3172,44.6366 20.5,40C 16.789,39.8253 13.1224,39.3253 9.5,38.5C 9.29069,37.914 8.95735,37.414 8.5,37C 11.8536,36.5448 15.1869,36.0448 18.5,35.5C 20.5616,37.5639 22.895,39.2305 25.5,40.5C 28.4264,39.0779 30.9264,37.0779 33,34.5C 47.2053,29.5787 61.3719,25.9121 75.5,23.5C 75.5,23.1667 75.5,22.8333 75.5,22.5C 76.1577,21.6016 76.8243,20.6016 77.5,19.5C 78.4063,21.3864 79.4063,23.2197 80.5,25C 85.4352,25.839 87.4352,23.6723 86.5,18.5 Z M 91.5,28.5 C 89.312,29.6227 86.9787,29.6227 84.5,28.5C 85.209,27.596 86.209,27.2627 87.5,27.5C 87.5,26.1667 87.5,24.8333 87.5,23.5C 88.5,23.5 89.5,23.5 90.5,23.5C 90.366,25.2915 90.6993,26.9582 91.5,28.5 Z M 81.5,28.5 C 79.2646,28.7947 77.2646,28.4614 75.5,27.5C 75.9709,26.0992 76.6376,24.7658 77.5,23.5C 78.1517,25.808 79.485,27.4747 81.5,28.5 Z"/></g>
<g><path style="opacity:0.004" fill="#a9a9a9" d="M 139.5,32.5 C 142.187,32.3359 144.854,32.5026 147.5,33C 145.331,35.2031 142.665,36.0365 139.5,35.5C 139.5,34.5 139.5,33.5 139.5,32.5 Z"/></g>
<g><path style="opacity:1" fill="#d4d3d3" d="M 72.5,31.5 C 76.9017,31.2281 81.2351,31.5614 85.5,32.5C 86.5527,35.8151 86.5527,39.1485 85.5,42.5C 81.5,42.5 77.5,42.5 73.5,42.5C 72.8857,38.8648 72.5524,35.1981 72.5,31.5 Z"/></g>
<g><path style="opacity:1" fill="#ff6849" d="M 128.5,33.5 C 130.852,34.5426 131.019,35.8759 129,37.5C 127.232,36.3181 127.065,34.9848 128.5,33.5 Z"/></g>
<g><path style="opacity:1" fill="#42bbcc" d="M 64.5,33.5 C 66.288,33.2148 67.9547,33.5481 69.5,34.5C 70.4066,37.4212 70.7399,40.4212 70.5,43.5C 67.4271,44.199 64.4271,45.199 61.5,46.5C 59.443,44.731 57.6097,42.731 56,40.5C 55.3828,39.5509 55.5494,38.7175 56.5,38C 59.3911,36.7258 62.0578,35.2258 64.5,33.5 Z"/></g>
<g><path style="opacity:1" fill="#41bbcb" d="M 89.5,33.5 C 94.4641,33.8981 98.9641,35.5647 103,38.5C 102.176,41.8008 100.51,44.8008 98,47.5C 95.3632,45.7651 92.5299,44.4318 89.5,43.5C 88.4473,40.1849 88.4473,36.8515 89.5,33.5 Z"/></g>
<g><path style="opacity:0.004" fill="#aaabaa" d="M 31.5,39.5 C 33.4646,39.9483 33.7979,40.9483 32.5,42.5C 31.6143,41.675 31.281,40.675 31.5,39.5 Z"/></g>
<g><path style="opacity:0.004" fill="#aaabaa" d="M 135.5,39.5 C 140.021,39.3262 140.355,39.9929 136.5,41.5C 135.702,41.0431 135.369,40.3764 135.5,39.5 Z"/></g>
<g><path style="opacity:1" fill="#e0e0e0" d="M 51.5,40.5 C 54.1435,42.1533 56.1435,44.4867 57.5,47.5C 52.6376,48.0271 49.6376,50.6938 48.5,55.5C 46.0905,54.2993 44.0905,52.6326 42.5,50.5C 45.5222,47.1467 48.5222,43.8134 51.5,40.5 Z"/></g>
<g><path style="opacity:1" fill="#dfdede" d="M 105.5,40.5 C 109.75,43.0786 113.417,46.4119 116.5,50.5C 114.81,53.0237 112.643,55.0237 110,56.5C 109.755,51.0871 106.921,48.0871 101.5,47.5C 103.616,45.6001 104.949,43.2668 105.5,40.5 Z"/></g>
<g><path style="opacity:1" fill="#fbfbfb" d="M 70.5,45.5 C 76.5092,45.3338 82.5092,45.5005 88.5,46C 92.1122,47.1395 95.4456,48.8061 98.5,51C 100.035,51.4962 101.535,51.3295 103,50.5C 106.426,51.8564 107.259,54.1897 105.5,57.5C 113.863,69.5864 114.696,82.2531 108,95.5C 105.353,99.3135 102.187,102.647 98.5,105.5C 85.8333,96.1667 73.1667,96.1667 60.5,105.5C 44.6885,91.492 42.3551,75.492 53.5,57.5C 51.7411,54.1897 52.5745,51.8564 56,50.5C 57.4651,51.3295 58.9651,51.4962 60.5,51C 63.7667,48.8703 67.1,47.037 70.5,45.5 Z"/></g>
<g><path style="opacity:0.575" fill="#ffc51c" d="M 15.5,52.5 C 16.8333,52.5 18.1667,52.5 19.5,52.5C 19.5,53.5 19.5,54.5 19.5,55.5C 22.1667,55.5 24.8333,55.5 27.5,55.5C 27.5,59.5 27.5,63.5 27.5,67.5C 23.7254,67.0719 20.2254,67.7386 17,69.5C 15.4029,68.1153 13.5695,67.4486 11.5,67.5C 11.6816,65.4086 11.3482,63.4086 10.5,61.5C 11.6554,60.0495 13.1554,59.0495 15,58.5C 15.4955,56.5273 15.6621,54.5273 15.5,52.5 Z"/></g>
<g><path style="opacity:1" fill="#41bacb" d="M 39.5,54.5 C 42.8852,55.3618 45.8852,57.0284 48.5,59.5C 46.7382,62.5192 45.4049,65.6858 44.5,69C 41.2221,69.2782 38.0554,68.7782 35,67.5C 35.5818,62.9236 37.0818,58.5903 39.5,54.5 Z"/></g>
<g><path style="opacity:1" fill="#42bdce" d="M 116.5,54.5 C 117.822,54.33 118.989,54.6634 120,55.5C 121.913,58.8259 123.413,62.3259 124.5,66C 124.095,66.9454 123.428,67.6121 122.5,68C 120.109,68.2868 117.776,68.7868 115.5,69.5C 113.838,66.1756 112.171,62.8422 110.5,59.5C 112.571,57.8149 114.571,56.1482 116.5,54.5 Z"/></g>
<g><path style="opacity:0.749" fill="#52fe84" d="M 147.5,68.5 C 146.167,68.8333 144.833,69.1667 143.5,69.5C 139.773,67.7476 135.773,67.081 131.5,67.5C 130.862,63.0141 132.196,59.3475 135.5,56.5C 138.93,57.7422 140.263,56.4089 139.5,52.5C 140.833,52.5 142.167,52.5 143.5,52.5C 143.222,56.7426 144.889,59.9093 148.5,62C 146.294,63.2502 144.961,65.0835 144.5,67.5C 145.791,67.2627 146.791,67.596 147.5,68.5 Z"/></g>
<g><path style="opacity:0.596" fill="#fec41c" d="M 147.5,68.5 C 147.5,69.5 147.5,70.5 147.5,71.5C 150.167,71.5 152.833,71.5 155.5,71.5C 155.919,76.7361 155.919,82.0695 155.5,87.5C 153.08,87.7076 150.747,87.3742 148.5,86.5C 147.548,88.0453 147.215,89.712 147.5,91.5C 144.833,91.5 142.167,91.5 139.5,91.5C 139.5,88.8333 139.5,86.1667 139.5,83.5C 138.167,83.5 136.833,83.5 135.5,83.5C 135.5,80.8333 135.5,78.1667 135.5,75.5C 137.833,75.5 140.167,75.5 142.5,75.5C 142.833,73.5 143.167,71.5 143.5,69.5C 144.833,69.1667 146.167,68.8333 147.5,68.5 Z"/></g>
<g><path style="opacity:0.715" fill="#52fe84" d="M 23.5,75.5 C 23.5543,78.967 22.0543,81.6337 19,83.5C 18.8253,86.1572 18.9919,88.8239 19.5,91.5C 16.8333,91.5 14.1667,91.5 11.5,91.5C 11.5,90.1667 11.5,88.8333 11.5,87.5C 9.16667,87.5 6.83333,87.5 4.5,87.5C 4.33003,86.1779 4.66337,85.0113 5.5,84C 3.61118,80.1638 2.94451,75.9971 3.5,71.5C 4.83333,71.5 6.16667,71.5 7.5,71.5C 7.5,72.5 7.5,73.5 7.5,74.5C 10.282,74.2273 12.4487,72.894 14,70.5C 15.9378,72.0581 17.4378,74.0581 18.5,76.5C 20.0709,75.6906 21.7376,75.3573 23.5,75.5 Z"/></g>
<g><path style="opacity:0.016" fill="#55ff85" d="M 133.5,72.5 C 133.897,71.475 134.563,71.3083 135.5,72C 134.906,72.4643 134.239,72.631 133.5,72.5 Z"/></g>
<g><path style="opacity:1" fill="#dedede" d="M 33.5,70.5 C 36.5164,71.0587 39.5164,71.7254 42.5,72.5C 43.4909,76.4454 43.8242,80.4454 43.5,84.5C 40.4212,84.2601 37.4212,84.5934 34.5,85.5C 33.5059,80.544 33.1725,75.544 33.5,70.5 Z"/></g>
<g><path style="opacity:1" fill="#dedfdf" d="M 121.5,70.5 C 122.833,70.5 124.167,70.5 125.5,70.5C 125.5,75.5 125.5,80.5 125.5,85.5C 122.193,84.9492 118.86,84.6159 115.5,84.5C 115.334,80.4862 115.501,76.4862 116,72.5C 117.948,71.8906 119.782,71.224 121.5,70.5 Z"/></g>
<g><path style="opacity:0.016" fill="#afec64" d="M 23.5,75.5 C 23.238,74.0222 23.5713,72.6888 24.5,71.5C 24.8333,71.6667 25.1667,71.8333 25.5,72C 24.9152,73.3024 24.2485,74.469 23.5,75.5 Z"/></g>
<g><path style="opacity:0.016" fill="#fec71b" d="M 135.5,75.5 C 134.475,75.1034 134.308,74.4368 135,73.5C 135.464,74.0944 135.631,74.7611 135.5,75.5 Z"/></g>
<g><path style="opacity:1" fill="#161414" d="M 61.5,82.5 C 66.4857,82.3049 68.1524,84.4716 66.5,89C 60.2435,89.9338 58.5769,87.7672 61.5,82.5 Z"/></g>
<g><path style="opacity:1" fill="#151414" d="M 93.5,82.5 C 98.2137,82.2008 99.8804,84.2008 98.5,88.5C 92.0332,90.2036 90.3666,88.2036 93.5,82.5 Z"/></g>
<g><path style="opacity:1" fill="#1d1c1c" d="M 76.5,85.5 C 78.5,85.5 80.5,85.5 82.5,85.5C 79.3569,89.5945 80.0236,92.9279 84.5,95.5C 82.6351,96.6662 80.9684,96.3329 79.5,94.5C 78.5,95.1667 77.5,95.8333 76.5,96.5C 76.1667,96.1667 75.8333,95.8333 75.5,95.5C 76.935,94.0715 77.935,92.4048 78.5,90.5C 77.8131,88.8228 77.1465,87.1561 76.5,85.5 Z"/></g>
<g><path style="opacity:1" fill="#42bccc" d="M 114.5,86.5 C 117.789,87.3739 121.123,88.0405 124.5,88.5C 123.474,93.5748 121.474,98.2415 118.5,102.5C 115.527,100.853 112.86,98.8532 110.5,96.5C 112.4,93.3707 113.733,90.0373 114.5,86.5 Z"/></g>
<g><path style="opacity:1" fill="#41b9c9" d="M 40.5,86.5 C 42.1439,86.2865 43.6439,86.6198 45,87.5C 45.8725,90.6181 47.0392,93.6181 48.5,96.5C 46.1401,98.8532 43.4735,100.853 40.5,102.5C 37.7535,98.5202 35.7535,94.1869 34.5,89.5C 36.2818,88.0159 38.2818,87.0159 40.5,86.5 Z"/></g>
<g><path style="opacity:1" fill="#edc404" d="M 37.5,103.5 C 36.375,104.348 36.375,105.348 37.5,106.5C 33.1301,103.933 28.7968,103.933 24.5,106.5C 24.5,105.833 24.1667,105.5 23.5,105.5C 24.7653,104.521 26.0986,103.521 27.5,102.5C 26.4425,102.094 25.1092,102.094 23.5,102.5C 21.9519,102.179 21.2852,101.179 21.5,99.5C 20.5,99.5 19.5,99.5 18.5,99.5C 22.7754,95.8432 27.7754,94.6765 33.5,96C 34.9732,98.4476 36.3065,100.948 37.5,103.5 Z"/></g>
<g><path style="opacity:1" fill="#5f4a07" d="M 26.5,98.5 C 28.337,98.6395 28.6704,99.3061 27.5,100.5C 26.7025,100.043 26.3691,99.3764 26.5,98.5 Z"/></g>
<g><path style="opacity:1" fill="#e1e1e1" d="M 49.5,99.5 C 52.679,101.846 55.3456,104.679 57.5,108C 56.2115,110.741 54.5448,113.241 52.5,115.5C 48.8333,112.5 45.5,109.167 42.5,105.5C 44.6784,103.255 47.0117,101.255 49.5,99.5 Z"/></g>
<g><path style="opacity:1" fill="#f53100" d="M 79.5,100.5 C 85.4836,100.439 90.8169,102.272 95.5,106C 99.1667,111 102.833,116 106.5,121C 110.782,123.387 114.949,125.887 119,128.5C 120.16,135.175 117.327,138.175 110.5,137.5C 113.392,129.061 110.392,124.728 101.5,124.5C 98.5,124.5 95.5,124.5 92.5,124.5C 91.8481,116.515 87.5147,112.181 79.5,111.5C 80.8333,110.833 82.1667,110.167 83.5,109.5C 84.525,109.103 84.6917,108.437 84,107.5C 82.8545,108.684 81.6879,108.684 80.5,107.5C 80.0074,105.194 79.6741,102.861 79.5,100.5 Z"/></g>
<g><path style="opacity:1" fill="#ece602" d="M 139.5,99.5 C 137.368,99.5544 136.035,100.554 135.5,102.5C 131.646,101.011 130.979,101.678 133.5,104.5C 132.5,104.5 131.5,104.5 130.5,104.5C 125.66,103.756 121.993,105.422 119.5,109.5C 118.833,109.5 118.167,109.5 117.5,109.5C 120.533,105.275 123.2,100.775 125.5,96C 130.987,94.6071 135.654,95.7738 139.5,99.5 Z"/></g>
<g><path style="opacity:1" fill="#f66427" d="M 79.5,100.5 C 79.6741,102.861 80.0074,105.194 80.5,107.5C 78.2231,108.075 76.2231,108.409 74.5,108.5C 77.4281,109.484 80.4281,109.817 83.5,109.5C 82.1667,110.167 80.8333,110.833 79.5,111.5C 71.5597,112.107 67.2264,116.44 66.5,124.5C 63.2869,124.19 60.2869,124.523 57.5,125.5C 53.5084,123.67 50.3418,124.67 48,128.5C 47.5046,131.531 47.6713,134.531 48.5,137.5C 41.5758,138.304 38.7425,135.304 40,128.5C 43.558,125.968 47.3913,123.801 51.5,122C 55.6121,117.609 59.1121,112.776 62,107.5C 66.8843,102.808 72.7177,100.475 79.5,100.5 Z"/></g>
<g><path style="opacity:0.999" fill="#1e1704" d="M 23.5,105.5 C 22.4246,106.562 21.4246,106.562 20.5,105.5C 21.7701,104.712 22.7701,103.712 23.5,102.5C 25.1092,102.094 26.4425,102.094 27.5,102.5C 26.0986,103.521 24.7653,104.521 23.5,105.5 Z"/></g>
<g><path style="opacity:1" fill="#d9d9d9" d="M 108.5,99.5 C 111.533,101.016 114.2,103.016 116.5,105.5C 114.167,109.833 110.833,113.167 106.5,115.5C 104.333,113.17 102.666,110.503 101.5,107.5C 103.856,104.814 106.189,102.147 108.5,99.5 Z"/></g>
<g><path style="opacity:1" fill="#352c0d" d="M 135.5,102.5 C 136.713,104.676 138.38,105.009 140.5,103.5C 141.833,104.167 141.833,104.833 140.5,105.5C 137.995,106.672 135.661,106.338 133.5,104.5C 130.979,101.678 131.646,101.011 135.5,102.5 Z"/></g>
<g><path style="opacity:1" fill="#000000" d="M 72.5,104.5 C 74.337,104.639 74.6704,105.306 73.5,106.5C 72.7025,106.043 72.3691,105.376 72.5,104.5 Z"/></g>
<g><path style="opacity:1" fill="#000000" d="M 84.5,104.5 C 86.337,104.639 86.6704,105.306 85.5,106.5C 84.7025,106.043 84.3691,105.376 84.5,104.5 Z"/></g>
<g><path style="opacity:0.782" fill="#110c02" d="M 130.5,104.5 C 137.641,107.116 140.308,112.116 138.5,119.5C 135.32,124.752 130.653,126.752 124.5,125.5C 117.993,121.646 116.326,116.313 119.5,109.5C 121.993,105.422 125.66,103.756 130.5,104.5 Z M 126.5,106.5 C 121.208,108.757 119.375,112.757 121,118.5C 124.91,124.262 129.577,124.929 135,120.5C 138.519,111.861 135.685,107.194 126.5,106.5 Z"/></g>
<g><path style="opacity:0.764" fill="#130e03" d="M 37.5,106.5 C 43.5758,114.376 42.2425,120.709 33.5,125.5C 31.1432,125.663 28.8098,125.497 26.5,125C 23.6424,123.306 21.309,121.139 19.5,118.5C 18.4654,113.274 20.1321,109.274 24.5,106.5C 28.7968,103.933 33.1301,103.933 37.5,106.5 Z M 28.5,106.5 C 22.4124,109.476 20.9124,114.142 24,120.5C 29.4234,124.929 34.09,124.262 38,118.5C 39.8507,110.537 36.6841,106.537 28.5,106.5 Z"/></g>
<g><path style="opacity:1" fill="#130502" d="M 80.5,107.5 C 81.6879,108.684 82.8545,108.684 84,107.5C 84.6917,108.437 84.525,109.103 83.5,109.5C 80.4281,109.817 77.4281,109.484 74.5,108.5C 76.2231,108.409 78.2231,108.075 80.5,107.5 Z"/></g>
<g><path style="opacity:1" fill="#f5c801" d="M 139.5,99.5 C 143.115,101.021 145.615,103.687 147,107.5C 148.161,112.416 148.827,117.416 149,122.5C 149.931,124.459 150.764,126.459 151.5,128.5C 150.167,130.167 148.833,131.833 147.5,133.5C 146.119,133 145.453,132 145.5,130.5C 146.277,128.553 147.277,126.72 148.5,125C 148.167,124.5 147.833,124 147.5,123.5C 146.482,124.193 145.482,124.859 144.5,125.5C 142.016,123.936 140.016,121.936 138.5,119.5C 140.308,112.116 137.641,107.116 130.5,104.5C 131.5,104.5 132.5,104.5 133.5,104.5C 135.661,106.338 137.995,106.672 140.5,105.5C 141.833,104.833 141.833,104.167 140.5,103.5C 138.38,105.009 136.713,104.676 135.5,102.5C 136.035,100.554 137.368,99.5544 139.5,99.5 Z"/></g>
<g><path style="opacity:1" fill="#efe700" d="M 18.5,99.5 C 19.5,99.5 20.5,99.5 21.5,99.5C 21.2852,101.179 21.9519,102.179 23.5,102.5C 22.7701,103.712 21.7701,104.712 20.5,105.5C 21.4246,106.562 22.4246,106.562 23.5,105.5C 24.1667,105.5 24.5,105.833 24.5,106.5C 20.1321,109.274 18.4654,113.274 19.5,118.5C 19.6495,119.552 19.4828,120.552 19,121.5C 16.6716,122.664 14.8382,124.33 13.5,126.5C 13.5072,129.038 13.8405,131.538 14.5,134C 10.6999,141.476 7.03323,141.309 3.5,133.5C 5.10332,130.72 6.93665,128.054 9,125.5C 9.94046,119.481 10.9405,113.481 12,107.5C 13.4675,104.213 15.6341,101.546 18.5,99.5 Z"/></g>
<g><path style="opacity:1" fill="#47410a" d="M 17.5,103.5 C 19.337,103.639 19.6704,104.306 18.5,105.5C 17.7025,105.043 17.3691,104.376 17.5,103.5 Z"/></g>
<g><path style="opacity:1" fill="#171212" d="M 79.5,111.5 C 87.5147,112.181 91.8481,116.515 92.5,124.5C 91.8481,132.485 87.5147,136.819 79.5,137.5C 71.5,136.833 67.1667,132.5 66.5,124.5C 67.2264,116.44 71.5597,112.107 79.5,111.5 Z"/></g>
<g><path style="opacity:1" fill="#eee200" d="M 37.5,103.5 C 41.3018,108.471 45.3018,113.304 49.5,118C 47.6613,121.602 44.6613,123.769 40.5,124.5C 39.0476,125.94 38.0476,127.606 37.5,129.5C 36.71,130.609 36.21,131.942 36,133.5C 35.5045,131.527 35.3379,129.527 35.5,127.5C 32.8127,127.664 30.146,127.497 27.5,127C 29.7078,126.809 31.7078,126.309 33.5,125.5C 42.2425,120.709 43.5758,114.376 37.5,106.5C 36.375,105.348 36.375,104.348 37.5,103.5 Z"/></g>
<g><path style="opacity:1" fill="#f3c900" d="M 117.5,109.5 C 118.167,109.5 118.833,109.5 119.5,109.5C 116.326,116.313 117.993,121.646 124.5,125.5C 122.973,125.427 121.973,126.094 121.5,127.5C 118.499,124.571 114.999,122.238 111,120.5C 110.333,118.833 110.333,117.167 111,115.5C 113.69,113.973 115.857,111.973 117.5,109.5 Z"/></g>
<g><path style="opacity:1" fill="#dddddd" d="M 74.5,114.5 C 83.8118,111.824 87.8118,115.158 86.5,124.5C 81.8333,124.5 77.1667,124.5 72.5,124.5C 72.1524,120.915 72.819,117.582 74.5,114.5 Z"/></g>
<g><path style="opacity:1" fill="#f4e900" d="M 138.5,119.5 C 140.016,121.936 142.016,123.936 144.5,125.5C 143.884,128.666 142.217,129.833 139.5,129C 137.825,130.709 136.158,132.376 134.5,134C 130.179,134.499 125.846,134.666 121.5,134.5C 121.5,132.167 121.5,129.833 121.5,127.5C 121.973,126.094 122.973,125.427 124.5,125.5C 130.653,126.752 135.32,124.752 138.5,119.5 Z"/></g>
<g><path style="opacity:1" fill="#f0f0f0" d="M 69.5,126.5 C 76.1407,127.683 82.8074,127.683 89.5,126.5C 88.7413,132.232 85.408,135.232 79.5,135.5C 73.592,135.232 70.2587,132.232 69.5,126.5 Z"/></g>
<g><path style="opacity:1" fill="#f1c200" d="M 19.5,118.5 C 21.309,121.139 23.6424,123.306 26.5,125C 28.8098,125.497 31.1432,125.663 33.5,125.5C 31.7078,126.309 29.7078,126.809 27.5,127C 30.146,127.497 32.8127,127.664 35.5,127.5C 35.3379,129.527 35.5045,131.527 36,133.5C 36.21,131.942 36.71,130.609 37.5,129.5C 37.5,131.167 37.5,132.833 37.5,134.5C 27.7786,136.595 19.7786,133.928 13.5,126.5C 14.8382,124.33 16.6716,122.664 19,121.5C 19.4828,120.552 19.6495,119.552 19.5,118.5 Z"/></g>
<g><path style="opacity:1" fill="#f1f1f1" d="M 51.5,127.5 C 56.7677,126.139 59.4343,128.139 59.5,133.5C 58.0022,139.249 55.1688,139.916 51,135.5C 49.0887,132.722 49.2554,130.056 51.5,127.5 Z"/></g>
<g><path style="opacity:1" fill="#f1f1f1" d="M 101.5,127.5 C 110.171,128.02 111.504,131.52 105.5,138C 103.299,138.825 101.466,138.325 100,136.5C 99.2069,133.259 99.7069,130.259 101.5,127.5 Z"/></g>
<g><path style="opacity:1" fill="#f73100" d="M 57.5,125.5 C 60.2869,124.523 63.2869,124.19 66.5,124.5C 67.1667,132.5 71.5,136.833 79.5,137.5C 79.5,141.167 79.5,144.833 79.5,148.5C 71.8421,148.588 65.6754,145.588 61,139.5C 62.0915,136.672 62.4248,133.672 62,130.5C 61.0041,128.34 59.5041,126.673 57.5,125.5 Z"/></g>
<g><path style="opacity:1" fill="#f96428" d="M 92.5,124.5 C 95.5,124.5 98.5,124.5 101.5,124.5C 96.3073,128.656 95.3073,133.656 98.5,139.5C 93.4675,145.393 87.1341,148.393 79.5,148.5C 79.5,144.833 79.5,141.167 79.5,137.5C 87.5147,136.819 91.8481,132.485 92.5,124.5 Z"/></g>
<g><path style="opacity:1" fill="#333434" d="M 139.5,132.5 C 142.663,133.321 145.33,134.988 147.5,137.5C 145.836,141.036 143.169,142.536 139.5,142C 139,141.5 138.5,141 138,140.5C 137.288,137.562 137.788,134.896 139.5,132.5 Z"/></g>
<g><path style="opacity:1" fill="#dfbe00" d="M 152.5,131.5 C 153.693,131.97 154.36,132.97 154.5,134.5C 154.743,136.922 153.743,138.588 151.5,139.5C 151.368,138.037 151.035,136.537 150.5,135C 150.978,133.697 151.645,132.531 152.5,131.5 Z"/></g>
<g><path style="opacity:1" fill="#f0f0f0" d="M 54.5,141.5 C 61.4091,142.004 64.5758,145.671 64,152.5C 62.6661,156.104 60.1661,157.271 56.5,156C 50.8244,151.8 50.1577,146.967 54.5,141.5 Z"/></g>
<g><path style="opacity:1" fill="#f5f5f5" d="M 100.5,141.5 C 104.919,141.419 107.252,143.586 107.5,148C 106.669,155.408 103.003,157.574 96.5,154.5C 95.4383,151.897 95.2716,149.23 96,146.5C 97.7073,144.963 99.2073,143.296 100.5,141.5 Z"/></g>
<g><path style="opacity:1" fill="#e6e6e6" d="M 91.5,147.5 C 92.4614,149.265 92.7947,151.265 92.5,153.5C 84.8689,154.564 77.2022,154.731 69.5,154C 67.4402,152.507 67.1068,150.674 68.5,148.5C 74.656,150.532 80.9894,151.032 87.5,150C 89.0664,149.392 90.3998,148.558 91.5,147.5 Z"/></g>
</svg>
