<?xml version="1.0" encoding="UTF-8"?>
<!DOCTYPE svg PUBLIC "-//W3C//DTD SVG 1.1//EN" "http://www.w3.org/Graphics/SVG/1.1/DTD/svg11.dtd">
<svg xmlns="http://www.w3.org/2000/svg" version="1.1" width="159px" height="160px" style="shape-rendering:geometricPrecision; text-rendering:geometricPrecision; image-rendering:optimizeQuality; fill-rule:evenodd; clip-rule:evenodd" xmlns:xlink="http://www.w3.org/1999/xlink">
<g><path style="opacity:0.728" fill="#020202" d="M 100.5,0.5 C 119.167,0.5 137.833,0.5 156.5,0.5C 156.5,34.8333 156.5,69.1667 156.5,103.5C 137.924,103.826 119.424,103.493 101,102.5C 100.5,68.5016 100.333,34.5016 100.5,0.5 Z"/></g>
<g><path style="opacity:0.924" fill="#0f1011" d="M 92.5,159.5 C 63.5,159.5 34.5,159.5 5.5,159.5C 3.45476,154.785 2.95476,149.785 4,144.5C 5.04584,142.91 6.21251,141.41 7.5,140C 5.29113,138.127 3.4578,135.96 2,133.5C 1.33333,92.5 1.33333,51.5 2,10.5C 4.18823,6.6488 7.35489,3.81546 11.5,2C 36.1667,1.33333 60.8333,1.33333 85.5,2C 90.5732,3.40561 94.0732,6.57227 96,11.5C 97.1279,27.4573 97.6279,43.4573 97.5,59.5C 97.496,74.0728 97.1627,88.5728 96.5,103C 98.6456,112.783 98.4789,122.617 96,132.5C 94.8951,135.937 92.7284,138.437 89.5,140C 94.8633,145.777 95.8633,152.277 92.5,159.5 Z"/></g>
<g><path style="opacity:1" fill="#fbfbfb" d="M 103.5,2.5 C 120.167,2.5 136.833,2.5 153.5,2.5C 153.5,35.1667 153.5,67.8333 153.5,100.5C 136.833,100.5 120.167,100.5 103.5,100.5C 103.5,67.8333 103.5,35.1667 103.5,2.5 Z"/></g>
<g><path style="opacity:1" fill="#808080" d="M 103.5,2.5 C 120.325,1.50341 137.325,1.17008 154.5,1.5C 154.5,34.8333 154.5,68.1667 154.5,101.5C 137.325,101.83 120.325,101.497 103.5,100.5C 120.167,100.5 136.833,100.5 153.5,100.5C 153.5,67.8333 153.5,35.1667 153.5,2.5C 136.833,2.5 120.167,2.5 103.5,2.5 Z"/></g>
<g><path style="opacity:1" fill="#fcfcfc" d="M 92.5,14.5 C 92.8312,41.0053 92.4978,67.3386 91.5,93.5C 88.5442,88.7098 84.7109,84.7098 80,81.5C 75.5285,61.5006 63.0285,52.6673 42.5,55C 19.0678,64.8727 13.0678,81.2061 24.5,104C 23.3987,109.794 23.2321,115.627 24,121.5C 25.6503,126.128 27.4837,130.628 29.5,135C 27.9228,137.736 26.5895,140.57 25.5,143.5C 23.8561,143.714 22.3561,143.38 21,142.5C 19.958,138.241 19.1246,133.907 18.5,129.5C 17.914,129.709 17.414,130.043 17,130.5C 16.5026,133.146 16.3359,135.813 16.5,138.5C 10.8972,138.444 7.06384,135.777 5,130.5C 4.33333,91.5 4.33333,52.5 5,13.5C 6.10491,10.0629 8.27158,7.56292 11.5,6C 35.8333,5.33333 60.1667,5.33333 84.5,6C 88.7211,7.38732 91.3878,10.2207 92.5,14.5 Z"/></g>
<g><path style="opacity:1" fill="#939393" d="M 92.5,14.5 C 93.8293,41.003 93.8293,67.6697 92.5,94.5C 91.8933,94.3764 91.56,94.0431 91.5,93.5C 92.4978,67.3386 92.8312,41.0053 92.5,14.5 Z"/></g>
<g><path style="opacity:1" fill="#202020" d="M 136.5,13.5 C 139.861,14.684 142.861,16.5173 145.5,19C 142.596,18.6514 139.93,17.4847 137.5,15.5C 135.07,17.4847 132.404,18.6514 129.5,19C 132.02,17.3029 134.353,15.4695 136.5,13.5 Z"/></g>
<g><path style="opacity:1" fill="#262626" d="M 135.5,18.5 C 136.892,17.478 138.225,17.8113 139.5,19.5C 139.333,19.8333 139.167,20.1667 139,20.5C 137.887,19.695 136.721,19.0283 135.5,18.5 Z"/></g>
<g><path style="opacity:1" fill="#0a0909" d="M 26.5,19.5 C 33.004,19.1377 34.6707,21.6377 31.5,27C 24.745,27.7558 23.0783,25.2558 26.5,19.5 Z"/></g>
<g><path style="opacity:1" fill="#0f0e0e" d="M 67.5,19.5 C 74.1584,18.3445 76.1584,20.8445 73.5,27C 66.7496,28.4689 64.7496,25.9689 67.5,19.5 Z"/></g>
<g><path style="opacity:1" fill="#181818" d="M 130.5,22.5 C 134.981,21.3516 139.648,21.1849 144.5,22C 142.689,24.978 140.356,27.478 137.5,29.5C 137.167,29.1667 136.833,28.8333 136.5,28.5C 138.5,27.1667 140.167,25.5 141.5,23.5C 137.893,22.5108 134.226,22.1774 130.5,22.5 Z"/></g>
<g><path style="opacity:1" fill="#ff4113" d="M 47.5,21.5 C 49.1667,21.5 50.8333,21.5 52.5,21.5C 52.5,22.8333 52.5,24.1667 52.5,25.5C 50.8008,25.6602 49.1341,25.4935 47.5,25C 46.3157,23.8545 46.3157,22.6879 47.5,21.5 Z"/></g>
<g><path style="opacity:1" fill="#131313" d="M 47.5,28.5 C 49.1992,28.3398 50.8659,28.5065 52.5,29C 54.7768,30.9585 57.2768,32.4585 60,33.5C 62.0865,32.5819 64.2532,31.9153 66.5,31.5C 66.7035,33.3904 66.0368,34.8904 64.5,36C 61.5,36.6667 58.5,36.6667 55.5,36C 51.5,31.3333 47.5,31.3333 43.5,36C 39.7559,36.9285 36.2559,36.4285 33,34.5C 32.3828,33.5509 32.5494,32.7175 33.5,32C 35.6772,31.6551 37.6772,32.1551 39.5,33.5C 42.5293,32.3237 45.1959,30.657 47.5,28.5 Z"/></g>
<g><path style="opacity:1" fill="#202020" d="M 130.5,32.5 C 139.778,31.2444 142.445,31.2444 138.5,32.5C 138.5,33.8333 138.5,35.1667 138.5,36.5C 147.811,37.0116 147.811,37.8449 138.5,39C 140.029,42.0288 142.362,44.1955 145.5,45.5C 145.167,45.8333 144.833,46.1667 144.5,46.5C 141.553,45.2195 139.219,43.2195 137.5,40.5C 135.781,43.2195 133.447,45.2195 130.5,46.5C 130.167,46.1667 129.833,45.8333 129.5,45.5C 137.809,41.1941 137.809,38.5275 129.5,37.5C 131.743,36.5258 134.076,36.1924 136.5,36.5C 136.5,35.1667 136.5,33.8333 136.5,32.5C 134.5,32.5 132.5,32.5 130.5,32.5 Z"/></g>
<g><path style="opacity:1" fill="#262626" d="M 137.5,53.5 C 137.672,54.4916 137.338,55.1583 136.5,55.5C 135.833,57.8333 135.167,60.1667 134.5,62.5C 133.07,62.4208 131.736,62.7542 130.5,63.5C 129.508,59.2172 129.174,54.8839 129.5,50.5C 131.124,50.6399 132.29,49.9733 133,48.5C 134.199,50.5756 135.699,52.2423 137.5,53.5 Z"/></g>
<g><path style="opacity:1" fill="#fcfcfc" d="M 131.5,52.5 C 132.5,52.5 133.5,52.5 134.5,52.5C 134.5,53.5 134.5,54.5 134.5,55.5C 133.5,55.5 132.5,55.5 131.5,55.5C 131.5,54.5 131.5,53.5 131.5,52.5 Z"/></g>
<g><path style="opacity:1" fill="#292929" d="M 137.5,53.5 C 137.231,51.5714 137.731,49.9047 139,48.5C 140.754,50.25 142.921,50.9167 145.5,50.5C 145.665,54.1817 145.499,57.8484 145,61.5C 143.963,64.3838 142.129,65.0504 139.5,63.5C 140.689,62.5713 142.022,62.238 143.5,62.5C 143.5,59.1667 143.5,55.8333 143.5,52.5C 141.379,52.3253 139.379,52.6586 137.5,53.5 Z"/></g>
<g><path style="opacity:1" fill="#1d1d1d" d="M 138.5,54.5 C 140.914,55.4056 141.747,57.0722 141,59.5C 139.628,58.0899 138.795,56.4233 138.5,54.5 Z"/></g>
<g><path style="opacity:1" fill="#e3e3e3" d="M 131.5,56.5 C 132.5,56.5 133.5,56.5 134.5,56.5C 134.5,57.8333 134.5,59.1667 134.5,60.5C 133.5,60.5 132.5,60.5 131.5,60.5C 131.5,59.1667 131.5,57.8333 131.5,56.5 Z"/></g>
<g><path style="opacity:1" fill="#919191" d="M 136.5,55.5 C 136.813,58.2469 136.48,60.9135 135.5,63.5C 134.893,63.3764 134.56,63.0431 134.5,62.5C 135.167,60.1667 135.833,57.8333 136.5,55.5 Z"/></g>
<g><path style="opacity:1" fill="#51bde4" d="M 38.5,58.5 C 44.418,58.3522 44.918,59.6855 40,62.5C 36.3849,61.8102 35.8849,60.4769 38.5,58.5 Z"/></g>
<g><path style="opacity:1" fill="#51bcef" d="M 45.5,57.5 C 62.0302,56.3929 72.3635,63.7263 76.5,79.5C 70.0722,79.1688 64.7388,76.6688 60.5,72C 54.4045,69.5836 48.4045,67.0836 42.5,64.5C 44.8541,62.7539 45.8541,60.4206 45.5,57.5 Z"/></g>
<g><path style="opacity:1" fill="#4b4b4b" d="M 115.5,60.5 C 115.804,61.1499 116.137,61.8165 116.5,62.5C 114.581,61.9889 112.915,62.6556 111.5,64.5C 110.113,61.8145 111.113,60.1479 114.5,59.5C 115.107,59.6236 115.44,59.9569 115.5,60.5 Z"/></g>
<g><path style="opacity:1" fill="#191919" d="M 115.5,60.5 C 118.85,60.335 122.183,60.5017 125.5,61C 125.088,62.5639 124.755,64.0639 124.5,65.5C 120.472,64.2207 116.472,64.2207 112.5,65.5C 113.557,64.794 113.224,64.4607 111.5,64.5C 112.915,62.6556 114.581,61.9889 116.5,62.5C 116.137,61.8165 115.804,61.1499 115.5,60.5 Z"/></g>
<g><path style="opacity:1" fill="#a7a7a7" d="M 117.5,61.5 C 119.337,61.6395 119.67,62.3061 118.5,63.5C 117.702,63.0431 117.369,62.3764 117.5,61.5 Z"/></g>
<g><path style="opacity:1" fill="#606060" d="M 124.5,65.5 C 125.376,65.3691 126.043,65.7025 126.5,66.5C 125.398,67.1757 124.398,67.8423 123.5,68.5C 123.167,68.5 122.833,68.5 122.5,68.5C 120.052,67.5269 117.385,67.1936 114.5,67.5C 114.167,67.5 113.833,67.5 113.5,67.5C 112.325,67.719 111.325,67.3857 110.5,66.5C 110.957,65.7025 111.624,65.3691 112.5,65.5C 116.472,64.2207 120.472,64.2207 124.5,65.5 Z"/></g>
<g><path style="opacity:1" fill="#52bfef" d="M 31.5,73.5 C 28.9407,73.8016 26.6074,73.4682 24.5,72.5C 26.7333,68.0375 29.9,64.3708 34,61.5C 35.8447,65.1427 35.8447,68.8094 34,72.5C 33.3292,73.2524 32.4959,73.5858 31.5,73.5 Z"/></g>
<g><path style="opacity:1" fill="#f0f0f0" d="M 38.5,67.5 C 45.004,67.1377 46.6707,69.6377 43.5,75C 37.7853,75.401 36.1187,72.901 38.5,67.5 Z"/></g>
<g><path style="opacity:1" fill="#1d1d1d" d="M 113.5,67.5 C 113.833,67.5 114.167,67.5 114.5,67.5C 115.209,68.404 116.209,68.7373 117.5,68.5C 117.028,71.8153 115.195,74.1486 112,75.5C 111.536,74.9056 111.369,74.2389 111.5,73.5C 113.048,73.1788 113.715,72.1788 113.5,70.5C 112.577,71.3029 111.577,71.4696 110.5,71C 111.71,69.9609 112.71,68.7942 113.5,67.5 Z"/></g>
<g><path style="opacity:1" fill="#262626" d="M 122.5,68.5 C 122.833,68.5 123.167,68.5 123.5,68.5C 127.311,68.5958 127.311,69.2624 123.5,70.5C 124.5,71.1667 125.5,71.8333 126.5,72.5C 125.398,73.1757 124.398,73.8423 123.5,74.5C 121.958,73.6993 120.292,73.366 118.5,73.5C 118.351,72.448 118.517,71.448 119,70.5C 120.183,71.731 121.349,71.731 122.5,70.5C 118.689,69.2624 118.689,68.5958 122.5,68.5 Z"/></g>
<g><path style="opacity:1" fill="#f1f1f1" d="M 113.5,70.5 C 114.251,69.4265 115.251,69.2599 116.5,70C 115.648,71.7284 114.648,71.895 113.5,70.5 Z"/></g>
<g><path style="opacity:1" fill="#f2f2f2" d="M 47.5,70.5 C 52.5202,70.6759 56.8536,72.5092 60.5,76C 44.4545,77.2651 32.9545,85.0985 26,99.5C 22.2669,88.9675 25.2669,80.9675 35,75.5C 39.3186,78.4323 43.3186,78.099 47,74.5C 47.49,73.2068 47.6567,71.8734 47.5,70.5 Z"/></g>
<g><path style="opacity:1" fill="#c1c1c1" d="M 114.5,67.5 C 117.385,67.1936 120.052,67.5269 122.5,68.5C 118.689,68.5958 118.689,69.2624 122.5,70.5C 121.349,71.731 120.183,71.731 119,70.5C 118.517,71.448 118.351,72.448 118.5,73.5C 120.292,73.366 121.958,73.6993 123.5,74.5C 124.5,75.1667 125.5,75.8333 126.5,76.5C 121.167,76.5 115.833,76.5 110.5,76.5C 110.263,75.209 110.596,74.209 111.5,73.5C 111.369,74.2389 111.536,74.9056 112,75.5C 115.195,74.1486 117.028,71.8153 117.5,68.5C 116.209,68.7373 115.209,68.404 114.5,67.5 Z"/></g>
<g><path style="opacity:1" fill="#285a72" d="M 24.5,72.5 C 26.6074,73.4682 28.9407,73.8016 31.5,73.5C 28.9759,74.8003 26.3092,74.8003 23.5,73.5C 23.6236,72.8933 23.9569,72.56 24.5,72.5 Z"/></g>
<g><path style="opacity:1" fill="#070707" d="M 126.5,76.5 C 125.167,77.1667 123.833,77.8333 122.5,78.5C 121.833,78.1667 121.167,77.8333 120.5,77.5C 118.738,77.3573 117.071,77.6906 115.5,78.5C 113.664,77.9724 111.997,77.3058 110.5,76.5C 115.833,76.5 121.167,76.5 126.5,76.5 Z"/></g>
<g><path style="opacity:1" fill="#dbdcdc" d="M 23.5,76.5 C 24.9778,76.238 26.3112,76.5713 27.5,77.5C 25.4197,79.9928 23.5864,82.6595 22,85.5C 21.0935,82.1562 21.5935,79.1562 23.5,76.5 Z"/></g>
<g><path style="opacity:1" fill="#757575" d="M 120.5,77.5 C 121.167,77.8333 121.833,78.1667 122.5,78.5C 123.791,78.2627 124.791,78.596 125.5,79.5C 123.167,79.5 120.833,79.5 118.5,79.5C 119.167,78.8333 119.833,78.1667 120.5,77.5 Z"/></g>
<g><path style="opacity:0.997" fill="#141414" d="M 116.5,88.5 C 114.856,88.2865 113.356,88.6198 112,89.5C 111.502,86.1832 111.335,82.8499 111.5,79.5C 113.167,79.5 114.833,79.5 116.5,79.5C 116.5,82.5 116.5,85.5 116.5,88.5 Z"/></g>
<g><path style="opacity:1" fill="#1e1e1e" d="M 118.5,79.5 C 120.833,79.5 123.167,79.5 125.5,79.5C 126.643,82.9758 126.81,86.6425 126,90.5C 124.506,91.7472 123.006,91.7472 121.5,90.5C 122.325,89.6143 123.325,89.281 124.5,89.5C 124.5,88.5 124.5,87.5 124.5,86.5C 122.712,86.2148 121.045,86.5481 119.5,87.5C 118.5,88.8333 117.5,90.1667 116.5,91.5C 115.438,90.5754 115.438,89.5754 116.5,88.5C 117.117,88.3893 117.617,88.056 118,87.5C 118.497,84.854 118.664,82.1873 118.5,79.5 Z"/></g>
<g><path style="opacity:1" fill="#e0e0e0" d="M 52.5,79.5 C 55.5,79.5 58.5,79.5 61.5,79.5C 61.5,81.8333 61.5,84.1667 61.5,86.5C 58.8333,86.5 56.1667,86.5 53.5,86.5C 53.0074,84.1944 52.6741,81.861 52.5,79.5 Z"/></g>
<g><path style="opacity:0.997" fill="#bebebe" d="M 112.5,80.5 C 113.5,80.5 114.5,80.5 115.5,80.5C 115.5,81.5 115.5,82.5 115.5,83.5C 114.5,83.5 113.5,83.5 112.5,83.5C 112.5,82.5 112.5,81.5 112.5,80.5 Z"/></g>
<g><path style="opacity:1" fill="#d9d9d9" d="M 119.5,80.5 C 121.288,80.2148 122.955,80.5481 124.5,81.5C 123.667,81.8333 122.833,82.1667 122,82.5C 120.624,82.3158 119.791,81.6491 119.5,80.5 Z"/></g>
<g><path style="opacity:1" fill="#42bccd" d="M 47.5,81.5 C 49.5864,82.1485 50.5864,83.6485 50.5,86C 47.1901,92.5368 43.8567,92.7035 40.5,86.5C 42.6866,84.5784 45.0199,82.9117 47.5,81.5 Z"/></g>
<g><path style="opacity:1" fill="#41baca" d="M 65.5,80.5 C 68.2706,80.4207 70.9373,80.9207 73.5,82C 74.3043,88.7107 71.6376,90.2107 65.5,86.5C 65.0798,84.674 65.0798,82.674 65.5,80.5 Z"/></g>
<g><path style="opacity:1" fill="#fcfcfc" d="M 112.5,84.5 C 113.675,84.281 114.675,84.6143 115.5,85.5C 113.948,86.7979 112.948,86.4646 112.5,84.5 Z"/></g>
<g><path style="opacity:1" fill="#ededed" d="M 119.5,83.5 C 121.288,83.2148 122.955,83.5481 124.5,84.5C 123.667,84.8333 122.833,85.1667 122,85.5C 120.624,85.3158 119.791,84.6491 119.5,83.5 Z"/></g>
<g><path style="opacity:1" fill="#e0e0e0" d="M 77.5,84.5 C 80.3723,85.5256 82.8723,87.1923 85,89.5C 85.5074,90.9961 85.0074,92.1627 83.5,93C 81.3318,91.0834 78.6651,89.5834 75.5,88.5C 76.1799,87.1401 76.8466,85.8068 77.5,84.5 Z"/></g>
<g><path style="opacity:1" fill="#fafafa" d="M 53.5,89.5 C 61.8257,89.1594 69.8257,89.9928 77.5,92C 79.1279,96.6667 81.2946,101.167 84,105.5C 86.4831,127.681 76.6498,138.181 54.5,137C 39.9911,131.494 34.1578,120.994 37,105.5C 37.8333,103.833 38.6667,102.167 39.5,100.5C 37.9967,96.2147 39.6634,94.3814 44.5,95C 47.2632,92.6258 50.2632,90.7925 53.5,89.5 Z"/></g>
<g><path style="opacity:1" fill="#e1e1e1" d="M 36.5,88.5 C 38.5638,88.7619 39.8971,89.9286 40.5,92C 37.5228,93.1455 35.8561,95.3121 35.5,98.5C 33.7697,97.9744 32.4363,96.9744 31.5,95.5C 32.9308,92.9613 34.5975,90.6279 36.5,88.5 Z"/></g>
<g><path style="opacity:1" fill="#43becf" d="M 86.5,93.5 C 90.209,95.2234 92.209,98.2234 92.5,102.5C 90.139,102.674 87.8056,103.007 85.5,103.5C 85.5228,101.4 84.8561,99.5671 83.5,98C 84.3146,96.3566 85.3146,94.8566 86.5,93.5 Z"/></g>
<g><path style="opacity:1" fill="#40b7c7" d="M 28.5,99.5 C 31.4206,99.1459 33.7539,100.146 35.5,102.5C 34.0541,104.618 33.3874,106.951 33.5,109.5C 30.3595,110.092 28.0261,109.092 26.5,106.5C 27.1734,104.149 27.8401,101.816 28.5,99.5 Z"/></g>
<g><path style="opacity:1" fill="#d8d8d8" d="M 92.5,104.5 C 94.4023,107.337 95.069,110.671 94.5,114.5C 92.1667,114.5 89.8333,114.5 87.5,114.5C 87.3359,111.813 87.5026,109.146 88,106.5C 89.6225,105.901 91.1225,105.234 92.5,104.5 Z"/></g>
<g><path style="opacity:0.615" fill="#000000" d="M 110.5,123.5 C 110.5,124.833 110.5,126.167 110.5,127.5C 109.022,127.238 107.689,127.571 106.5,128.5C 105.5,130.167 104.167,131.5 102.5,132.5C 101.808,131.975 101.308,131.308 101,130.5C 100,131.833 99,131.833 98,130.5C 99.5296,125.876 100.696,121.043 101.5,116C 100.75,112.837 100.084,109.67 99.5,106.5C 100.822,106.33 101.989,106.663 103,107.5C 104.102,111.416 104.769,115.416 105,119.5C 105.333,117.833 105.667,116.167 106,114.5C 107,113.167 108,113.167 109,114.5C 109.728,117.23 109.562,119.897 108.5,122.5C 108.957,123.298 109.624,123.631 110.5,123.5 Z"/></g>
<g><path style="opacity:0.586" fill="#f0f0f0" d="M 110.5,127.5 C 110.5,126.167 110.5,124.833 110.5,123.5C 112.026,122.895 113.026,121.729 113.5,120C 116.482,119.502 119.482,119.335 122.5,119.5C 122.5,116.833 122.5,114.167 122.5,111.5C 123.5,111.5 124.5,111.5 125.5,111.5C 126.128,107.172 128.128,106.505 131.5,109.5C 134.802,107.9 136.969,108.9 138,112.5C 140.358,115.605 139.858,118.105 136.5,120C 137.516,121.677 138.516,123.343 139.5,125C 138.895,129.212 137.228,132.712 134.5,135.5C 133.167,135.5 131.833,135.5 130.5,135.5C 130.5,134.167 130.5,132.833 130.5,131.5C 128.549,131.773 127.049,131.107 126,129.5C 125.667,129.833 125.333,130.167 125,130.5C 125.111,132.483 125.611,134.483 126.5,136.5C 125.737,139.057 124.57,141.39 123,143.5C 122.667,146.5 122.333,149.5 122,152.5C 120.806,154.525 119.306,154.859 117.5,153.5C 116.673,149.541 116.173,145.541 116,141.5C 114.417,139.607 112.917,137.607 111.5,135.5C 110.52,132.914 110.187,130.247 110.5,127.5 Z M 123.5,120.5 C 124.209,119.596 125.209,119.263 126.5,119.5C 126.81,124.452 125.81,124.786 123.5,120.5 Z"/></g>
<g><path style="opacity:1" fill="#151515" d="M 127.5,110.5 C 129.164,111.949 129.998,113.949 130,116.5C 130.893,115.289 131.726,115.289 132.5,116.5C 131.38,118.596 129.88,118.93 128,117.5C 127.503,115.19 127.337,112.857 127.5,110.5 Z"/></g>
<g><path style="opacity:0.998" fill="#292929" d="M 133.5,110.5 C 136.083,111.985 137.416,114.318 137.5,117.5C 136.5,117.5 135.5,117.5 134.5,117.5C 134.552,115.097 134.219,112.764 133.5,110.5 Z"/></g>
<g><path style="opacity:1" fill="#626161" d="M 32.5,112.5 C 30.5,112.5 28.5,112.5 26.5,112.5C 26.5,114.167 26.5,115.833 26.5,117.5C 25.5386,115.735 25.2053,113.735 25.5,111.5C 28.0593,111.198 30.3926,111.532 32.5,112.5 Z"/></g>
<g><path style="opacity:1" fill="#dddddd" d="M 32.5,112.5 C 35.1932,118.5 33.1932,121.5 26.5,121.5C 26.5,120.167 26.5,118.833 26.5,117.5C 26.5,115.833 26.5,114.167 26.5,112.5C 28.5,112.5 30.5,112.5 32.5,112.5 Z"/></g>
<g><path style="opacity:0.999" fill="#090808" d="M 73.5,117.5 C 76.9103,117.384 78.2436,119.05 77.5,122.5C 73.065,123.078 71.7317,121.411 73.5,117.5 Z"/></g>
<g><path style="opacity:1" fill="#161616" d="M 50.5,119.5 C 54.9288,120.666 55.4288,122.666 52,125.5C 48.1685,124.198 47.6685,122.198 50.5,119.5 Z"/></g>
<g><path style="opacity:1" fill="#282828" d="M 61.5,120.5 C 64.838,120.109 65.838,121.276 64.5,124C 65.1007,125.605 66.1007,126.938 67.5,128C 66.451,128.492 65.451,128.326 64.5,127.5C 60.2574,130.087 59.5907,129.254 62.5,125C 61.8524,123.56 61.5191,122.06 61.5,120.5 Z"/></g>
<g><path style="opacity:1" fill="#43bfd0" d="M 87.5,117.5 C 89.924,117.192 92.2573,117.526 94.5,118.5C 93.9088,121.925 92.5755,124.925 90.5,127.5C 88.6675,126.752 87.0009,125.752 85.5,124.5C 86.3249,122.199 86.9916,119.865 87.5,117.5 Z"/></g>
<g><path style="opacity:0.996" fill="#202020" d="M 114.5,121.5 C 116.036,123.025 117.036,125.025 117.5,127.5C 119.936,126.109 120.602,126.609 119.5,129C 118.056,129.781 116.723,129.614 115.5,128.5C 114.626,126.253 114.292,123.92 114.5,121.5 Z"/></g>
<g><path style="opacity:1" fill="#151515" d="M 120.5,121.5 C 123.95,122.737 124.95,125.07 123.5,128.5C 122.645,126.045 121.645,123.712 120.5,121.5 Z"/></g>
<g><path style="opacity:0.998" fill="#1b1b1b" d="M 128.5,120.5 C 130.924,120.192 133.257,120.526 135.5,121.5C 135.291,122.086 134.957,122.586 134.5,123C 135.624,123.249 136.624,123.749 137.5,124.5C 135.149,125.012 133.149,126.012 131.5,127.5C 132.833,128.167 134.167,128.833 135.5,129.5C 133.865,130.681 132.198,130.681 130.5,129.5C 129.269,128.349 129.269,127.183 130.5,126C 129.5,125.667 128.5,125.333 127.5,125C 128.833,124.333 130.167,123.667 131.5,123C 129.881,122.764 128.881,121.931 128.5,120.5 Z"/></g>
<g><path style="opacity:1" fill="#42bbcc" d="M 32.5,122.5 C 35.2055,123.69 36.8721,125.856 37.5,129C 36.6796,131.154 35.1796,132.654 33,133.5C 31.2467,130.995 29.7467,128.329 28.5,125.5C 29.6243,124.141 30.9577,123.141 32.5,122.5 Z"/></g>
<g><path style="opacity:1" fill="#dfdfdf" d="M 83.5,127.5 C 85.9661,127.899 87.9661,129.065 89.5,131C 88.0367,133.631 86.0367,135.798 83.5,137.5C 81.8333,136.5 80.5,135.167 79.5,133.5C 81.2516,131.754 82.5849,129.754 83.5,127.5 Z"/></g>
<g><path style="opacity:1" fill="#e0e0e0" d="M 38.5,132.5 C 46.5107,133.736 47.844,137.069 42.5,142.5C 40.1667,140.5 37.8333,138.5 35.5,136.5C 36.5244,135.148 37.5244,133.815 38.5,132.5 Z"/></g>
<g><path style="opacity:1" fill="#1c1c1c" d="M 115.5,131.5 C 117.924,131.192 120.257,131.526 122.5,132.5C 122.291,133.086 121.957,133.586 121.5,134C 122.624,134.249 123.624,134.749 124.5,135.5C 122.49,136.065 120.824,137.065 119.5,138.5C 120.5,139.167 121.5,139.833 122.5,140.5C 120.081,141.895 118.081,141.395 116.5,139C 117.552,137.284 116.886,136.284 114.5,136C 116.044,135.71 117.377,135.044 118.5,134C 116.881,133.764 115.881,132.931 115.5,131.5 Z"/></g>
<g><path style="opacity:1" fill="#43becf" d="M 75.5,135.5 C 77.9345,136.099 79.6012,137.599 80.5,140C 78.0528,142.557 75.0528,144.057 71.5,144.5C 70.9862,142.488 70.8195,140.488 71,138.5C 72.6516,137.601 74.1516,136.601 75.5,135.5 Z"/></g>
<g><path style="opacity:1" fill="#eeeeee" d="M 31.5,137.5 C 39.4129,140.695 39.4129,144.028 31.5,147.5C 29.7282,146.73 28.7282,145.397 28.5,143.5C 29.5186,141.489 30.5186,139.489 31.5,137.5 Z"/></g>
<g><path style="opacity:1" fill="#f5f5f5" d="M 83.5,141.5 C 86.0589,143.793 86.0589,146.293 83.5,149C 79.8886,150.254 78.3886,149.088 79,145.5C 80.6667,144.267 82.1667,142.933 83.5,141.5 Z"/></g>
<g><path style="opacity:1" fill="#e2e2e2" d="M 65.5,146.5 C 63.5,146.5 61.5,146.5 59.5,146.5C 59.5,144.833 59.5,143.167 59.5,141.5C 65.5299,137.682 68.5299,139.349 68.5,146.5C 67.5,146.5 66.5,146.5 65.5,146.5 Z"/></g>
<g><path style="opacity:1" fill="#3d3d3d" d="M 10.5,142.5 C 12.8568,142.337 15.1902,142.503 17.5,143C 18.8782,144.713 20.5448,146.047 22.5,147C 25.8359,147.463 29.0025,148.296 32,149.5C 35.4963,149 38.3296,147.334 40.5,144.5C 51.1934,151.124 62.36,152.124 74,147.5C 80.1266,154.644 85.1266,153.978 89,145.5C 90.4051,148.619 90.9051,151.952 90.5,155.5C 62.8333,155.5 35.1667,155.5 7.5,155.5C 6.73803,150.607 7.73803,146.274 10.5,142.5 Z"/></g>
<g><path style="opacity:1" fill="#42bccd" d="M 48.5,138.5 C 51.2538,138.784 53.9205,139.451 56.5,140.5C 55.6518,142.409 55.3184,144.409 55.5,146.5C 52.4545,146.658 49.6212,145.991 47,144.5C 46.5906,142.305 47.0906,140.305 48.5,138.5 Z"/></g>
<g><path style="opacity:0.984" fill="#222222" d="M 118.5,142.5 C 120.337,142.639 120.67,143.306 119.5,144.5C 118.702,144.043 118.369,143.376 118.5,142.5 Z"/></g>
<g><path style="opacity:1" fill="#767575" d="M 59.5,141.5 C 59.5,143.167 59.5,144.833 59.5,146.5C 61.5,146.5 63.5,146.5 65.5,146.5C 63.3926,147.468 61.0593,147.802 58.5,147.5C 58.2053,145.265 58.5386,143.265 59.5,141.5 Z"/></g>
<g><path style="opacity:0.992" fill="#070807" d="M 118.5,146.5 C 120.337,146.639 120.67,147.306 119.5,148.5C 118.702,148.043 118.369,147.376 118.5,146.5 Z"/></g>
<g><path style="opacity:1" fill="#343434" d="M 118.5,150.5 C 120.337,150.639 120.67,151.306 119.5,152.5C 118.702,152.043 118.369,151.376 118.5,150.5 Z"/></g>
</svg>
