<?xml version="1.0" encoding="UTF-8"?>
<!DOCTYPE svg PUBLIC "-//W3C//DTD SVG 1.1//EN" "http://www.w3.org/Graphics/SVG/1.1/DTD/svg11.dtd">
<svg xmlns="http://www.w3.org/2000/svg" version="1.1" width="160px" height="160px" style="shape-rendering:geometricPrecision; text-rendering:geometricPrecision; image-rendering:optimizeQuality; fill-rule:evenodd; clip-rule:evenodd" xmlns:xlink="http://www.w3.org/1999/xlink">
<g><path style="opacity:1" fill="#f6f6f5" d="M 22.5,82.5 C 21.962,80.8828 21.6287,79.2161 21.5,77.5C 17.0107,76.8834 15.344,78.5501 16.5,82.5C 12.8768,84.0542 10.3768,86.7209 9,90.5C 8.50166,87.1832 8.33499,83.8499 8.5,80.5C 10.0174,80.5106 11.1841,81.1772 12,82.5C 12.9153,79.5185 14.4153,76.8518 16.5,74.5C 13.95,72.9952 11.95,70.9952 10.5,68.5C 9.48224,69.1925 8.48224,69.8592 7.5,70.5C 6.33265,52.9907 4.99932,35.4907 3.5,18C 3.3536,15.9658 4.02026,14.2991 5.5,13C 8.04439,11.908 10.7111,11.2414 13.5,11C 28.4628,9.25893 43.4628,8.59227 58.5,9C 60.0037,10.4907 60.8371,12.324 61,14.5C 61.498,17.4816 61.6646,20.4816 61.5,23.5C 48.1286,23.9412 38.6286,30.2745 33,42.5C 17.2315,47.3809 12.8982,57.3809 20,72.5C 23.6442,77.314 28.4776,79.6474 34.5,79.5C 34.5,81.1667 34.5,82.8333 34.5,84.5C 30.3425,84.6684 26.3425,84.0017 22.5,82.5 Z"/></g>
<g><path style="opacity:1" fill="#171616" d="M 154.5,105.5 C 153.609,104.89 152.609,104.557 151.5,104.5C 151.5,104.167 151.5,103.833 151.5,103.5C 151.179,95.826 150.679,88.1593 150,80.5C 146.518,83.8825 142.351,85.2159 137.5,84.5C 135.95,83.5592 134.284,82.8925 132.5,82.5C 131.432,81.5655 130.099,81.2322 128.5,81.5C 128.5,84.1667 128.5,86.8333 128.5,89.5C 128.715,91.1788 128.048,92.1788 126.5,92.5C 127.235,86.8203 125.901,81.8203 122.5,77.5C 125.591,72.6728 126.258,67.5061 124.5,62C 123.833,61.3333 123.167,61.3333 122.5,62C 121.327,65.5281 118.994,66.8614 115.5,66C 113.932,63.6959 112.765,61.1959 112,58.5C 110.921,64.3411 108.088,69.0077 103.5,72.5C 105.763,74.8923 106.097,77.559 104.5,80.5C 102.579,81.3627 100.579,82.0293 98.5,82.5C 97.2063,80.704 96.2063,78.704 95.5,76.5C 92.9465,78.944 89.9465,80.6107 86.5,81.5C 87.2458,82.7362 87.5792,84.0695 87.5,85.5C 86.8333,85.5 86.1667,85.5 85.5,85.5C 85.6427,83.7376 85.3094,82.0709 84.5,80.5C 88.5327,79.4012 92.0327,77.4012 95,74.5C 95.8015,71.7713 94.8015,70.1046 92,69.5C 87.2477,72.5748 82.7477,76.0748 78.5,80C 70.9694,84.0676 62.9694,85.4009 54.5,84C 48.9114,81.3184 43.2448,79.3184 37.5,78C 34.8076,80.6324 35.141,82.9658 38.5,85C 41.8168,85.4983 45.1501,85.665 48.5,85.5C 48.4045,88.6916 49.0712,91.6916 50.5,94.5C 49.8333,94.5 49.1667,94.5 48.5,94.5C 48.2041,92.597 47.5375,90.9303 46.5,89.5C 44.0877,87.838 41.2544,86.838 38,86.5C 37.8832,90.7851 35.7166,92.7851 31.5,92.5C 31.4403,95.3408 30.7736,98.0075 29.5,100.5C 26.3657,103.231 22.699,104.564 18.5,104.5C 17.4168,104.461 16.4168,104.127 15.5,103.5C 11.3014,105.893 9.63471,109.56 10.5,114.5C 14.037,114.311 17.3703,114.977 20.5,116.5C 20.5,117.167 20.1667,117.5 19.5,117.5C 16.3623,116.319 13.3623,116.319 10.5,117.5C 7.90902,118.254 6.07568,119.921 5,122.5C 5.00368,127.321 3.83702,131.821 1.5,136C 2.33333,138.5 3.83333,139 6,137.5C 6.48278,136.552 6.64945,135.552 6.5,134.5C 6.36899,133.761 6.53566,133.094 7,132.5C 8.48765,134.16 10.321,135.16 12.5,135.5C 14.8453,132.925 17.8453,131.925 21.5,132.5C 24.6967,134.469 28.03,134.803 31.5,133.5C 33.0618,133.733 34.3951,134.4 35.5,135.5C 35.6287,137.216 35.962,138.883 36.5,140.5C 31.6841,141.419 29.1841,144.419 29,149.5C 25.5515,154.721 20.8848,156.388 15,154.5C 10.7304,159.98 6.89709,159.646 3.5,153.5C 5.19211,151.795 6.52544,149.795 7.5,147.5C 6.16667,145.167 6.16667,142.833 7.5,140.5C 5.97928,140.12 4.31261,139.954 2.5,140C 1.21886,138.591 0.218865,137.091 -0.5,135.5C -0.5,134.167 -0.5,132.833 -0.5,131.5C 0.495904,131.586 1.32924,131.252 2,130.5C 1.45028,124.948 3.11694,120.282 7,116.5C 7.99436,111.753 7.49436,107.253 5.5,103C 5.90307,101.527 6.56974,100.194 7.5,99C 6.58798,93.2385 5.92131,87.4052 5.5,81.5C 6.39105,80.8902 7.39105,80.5569 8.5,80.5C 8.33499,83.8499 8.50166,87.1832 9,90.5C 10.3768,86.7209 12.8768,84.0542 16.5,82.5C 18.5,82.5 20.5,82.5 22.5,82.5C 26.3425,84.0017 30.3425,84.6684 34.5,84.5C 34.5,82.8333 34.5,81.1667 34.5,79.5C 28.4776,79.6474 23.6442,77.314 20,72.5C 12.8982,57.3809 17.2315,47.3809 33,42.5C 38.6286,30.2745 48.1286,23.9412 61.5,23.5C 61.6646,20.4816 61.498,17.4816 61,14.5C 60.8371,12.324 60.0037,10.4907 58.5,9C 43.4628,8.59227 28.4628,9.25893 13.5,11C 10.7111,11.2414 8.04439,11.908 5.5,13C 4.02026,14.2991 3.3536,15.9658 3.5,18C 4.99932,35.4907 6.33265,52.9907 7.5,70.5C 6.65225,71.625 5.65225,71.625 4.5,70.5C 3.04811,52.1747 1.88145,33.8413 1,15.5C 3.99007,9.75268 8.8234,7.25268 15.5,8C 27.5088,7.29419 39.5088,6.46086 51.5,5.5C 55.0343,5.32007 58.3676,5.98674 61.5,7.5C 63.3359,6.081 65.3359,4.91434 67.5,4C 84.798,2.19272 102.131,1.52605 119.5,2C 124.319,5.48783 128.819,9.32116 133,13.5C 137.332,10.3003 141.832,9.63367 146.5,11.5C 147.861,16.9477 149.528,22.2811 151.5,27.5C 149.247,37.7455 148.914,48.0789 150.5,58.5C 154.017,58.3511 156.017,60.0178 156.5,63.5C 154.971,65.8712 153.638,68.3712 152.5,71C 152.562,82.389 153.228,93.889 154.5,105.5 Z M 16.5,140.5 C 19.0217,140.128 21.0217,140.961 22.5,143C 21.552,143.483 20.552,143.649 19.5,143.5C 19.5,144.5 19.5,145.5 19.5,146.5C 15.5564,146.116 14.5564,144.116 16.5,140.5 Z"/></g>
<g><path style="opacity:1" fill="#f3db01" d="M 131.5,61.5 C 128.557,61.3535 125.724,60.6868 123,59.5C 121.005,61.3292 119.172,63.3292 117.5,65.5C 115.611,63.2002 114.277,60.5336 113.5,57.5C 111.091,56.2993 109.091,54.6326 107.5,52.5C 108.991,50.9884 110.824,49.9884 113,49.5C 113.689,46.5919 114.855,43.9252 116.5,41.5C 118.817,43.316 120.984,45.316 123,47.5C 124.242,46.1279 125.742,45.1279 127.5,44.5C 127.985,50.4153 129.319,56.082 131.5,61.5 Z"/></g>
<g><path style="opacity:1" fill="#44c1d2" d="M 83.5,37.5 C 84.675,37.281 85.675,37.6143 86.5,38.5C 87.5,40.5 88.5,42.5 89.5,44.5C 87.3455,45.9278 85.1788,46.2611 83,45.5C 82.2935,43.9194 81.4601,42.4194 80.5,41C 81.7101,39.9609 82.7101,38.7942 83.5,37.5 Z"/></g>
<g><path style="opacity:1" fill="#43c1d2" d="M 35.5,41.5 C 37.8421,41.5041 39.8421,42.3375 41.5,44C 40.1387,45.5843 39.472,47.4176 39.5,49.5C 37.5,49.5 35.5,49.5 33.5,49.5C 33.2826,46.5794 33.9493,43.9128 35.5,41.5 Z"/></g>
<g><path style="opacity:1" fill="#f94100" d="M 90.5,40.5 C 98.0784,39.6225 103.745,42.4558 107.5,49C 105.864,51.9543 106.364,54.4543 109,56.5C 109.354,63.451 106.354,68.451 100,71.5C 99,67.5 98,67.5 97,71.5C 95.6418,68.2122 93.1418,66.7122 89.5,67C 91.7297,62.9715 92.7297,58.6382 92.5,54C 92.354,49.405 91.6874,44.905 90.5,40.5 Z"/></g>
<g><path style="opacity:1" fill="#e0e0e0" d="M 42.5,31.5 C 43.9335,32.8333 45.2668,34.3333 46.5,36C 43.3333,36.5 41.5,38.3333 41,41.5C 39.5134,40.8448 38.3467,39.8448 37.5,38.5C 38.8037,35.8699 40.4704,33.5366 42.5,31.5 Z"/></g>
<g><path style="opacity:1" fill="#fafafa" d="M 56.5,33.5 C 63.5569,33.1336 70.2235,33.9669 76.5,36C 77.6542,40.1424 79.4876,43.9757 82,47.5C 83.8333,67 75,75.8333 55.5,74C 41.3465,67.0364 37.6798,56.5364 44.5,42.5C 43.6744,41.549 43.5078,40.549 44,39.5C 48.3033,37.5969 52.47,35.5969 56.5,33.5 Z"/></g>
<g><path style="opacity:1" fill="#e4e4e4" d="M 76.5,29.5 C 79.4073,30.7341 81.7407,32.7341 83.5,35.5C 82.2402,36.3816 81.0736,37.3816 80,38.5C 78.9596,35.9595 77.1263,34.2929 74.5,33.5C 75.1799,32.1401 75.8466,30.8068 76.5,29.5 Z"/></g>
<g><path style="opacity:1" fill="#42bccd" d="M 51.5,26.5 C 53.3023,27.3155 54.3023,28.8155 54.5,31C 52.7098,32.7339 50.7098,34.2339 48.5,35.5C 47.1667,33.8333 45.8333,32.1667 44.5,30.5C 46.7654,28.8726 49.0987,27.5392 51.5,26.5 Z"/></g>
<g><path style="opacity:1" fill="#40b9c9" d="M 65.5,25.5 C 69.0581,25.4052 72.0581,26.5718 74.5,29C 73.3725,33.8931 70.7059,34.8931 66.5,32C 65.5769,29.9592 65.2436,27.7925 65.5,25.5 Z"/></g>
<g><path style="opacity:1" fill="#e3e3e3" d="M 55.5,25.5 C 58.1667,25.5 60.8333,25.5 63.5,25.5C 63.5,27.5 63.5,29.5 63.5,31.5C 61.1432,31.6633 58.8098,31.4966 56.5,31C 55.5939,29.3005 55.2606,27.4672 55.5,25.5 Z"/></g>
<g><path style="opacity:1" fill="#121212" d="M 27.5,25.5 C 30.8649,25.255 34.0316,25.9217 37,27.5C 38.4397,26.8524 39.9397,26.5191 41.5,26.5C 41.67,27.8221 41.3366,28.9887 40.5,30C 36.9165,30.8456 33.5831,30.3456 30.5,28.5C 28.2937,30.1994 25.7937,31.1994 23,31.5C 21.8333,31.3333 20.6667,31.1667 19.5,31C 18.5494,30.2825 18.3828,29.4491 19,28.5C 20.7216,28.0385 22.555,27.8718 24.5,28C 25.9423,27.6232 26.9423,26.7899 27.5,25.5 Z"/></g>
<g><path style="opacity:1" fill="#29bdd1" d="M 139.5,12.5 C 141.437,15.1176 142.937,18.1176 144,21.5C 144.292,19.6739 144.125,17.8405 143.5,16C 143.68,13.7586 144.513,13.2586 146,14.5C 147.104,19.5209 148.271,24.5209 149.5,29.5C 148.825,32.1778 148.158,34.8445 147.5,37.5C 137.354,40.9087 131.687,37.0754 130.5,26C 130.833,25.5 131.167,25 131.5,24.5C 132.584,25.6651 133.417,26.9984 134,28.5C 134.081,24.9682 133.581,21.4682 132.5,18C 132.833,17.1667 133.167,16.3333 133.5,15.5C 134.382,18.3195 135.548,20.9862 137,23.5C 137.053,20.798 136.553,18.1314 135.5,15.5C 135.833,14.8333 136.167,14.1667 136.5,13.5C 138.026,15.7508 139.026,18.2508 139.5,21C 139.85,22.2575 140.517,22.5908 141.5,22C 140.134,19.0027 139.467,15.836 139.5,12.5 Z"/></g>
<g><path style="opacity:1" fill="#2d3a3f" d="M 137.5,29.5 C 140.217,26.8555 143.05,26.8555 146,29.5C 146.961,33.2256 145.461,35.3922 141.5,36C 138.143,37.1412 136.143,35.9746 135.5,32.5C 135.453,30.9623 136.12,29.9623 137.5,29.5 Z"/></g>
<g><path style="opacity:1" fill="#ebe8e8" d="M 137.5,29.5 C 140.852,27.6712 143.519,28.3378 145.5,31.5C 143.451,34.1475 140.784,34.9808 137.5,34C 136.587,32.5861 136.587,31.0861 137.5,29.5 Z"/></g>
<g><path style="opacity:1" fill="#fa552f" d="M 27.5,20.5 C 29.288,20.2148 30.9547,20.5481 32.5,21.5C 30.2029,24.2896 28.5362,23.9563 27.5,20.5 Z"/></g>
<g><path style="opacity:1" fill="#161616" d="M 14.5,19.5 C 18.35,19.7007 19.35,21.5341 17.5,25C 12.2894,25.5464 11.2894,23.713 14.5,19.5 Z"/></g>
<g><path style="opacity:1" fill="#0e0e0e" d="M 42.5,17.5 C 46.35,17.7007 47.35,19.5341 45.5,23C 40.7217,23.0734 39.7217,21.2401 42.5,17.5 Z"/></g>
<g><path style="opacity:1" fill="#f3f2f0" d="M 144.5,61.5 C 145.995,61.5852 146.995,60.9185 147.5,59.5C 146.52,58.0186 145.353,56.6853 144,55.5C 143.505,53.5273 143.338,51.5273 143.5,49.5C 141.323,49.5861 139.323,50.2528 137.5,51.5C 135.677,50.2528 133.677,49.5861 131.5,49.5C 131.833,52.1667 132.167,54.8333 132.5,57.5C 131.275,56.063 130.275,54.3964 129.5,52.5C 130.562,49.8971 130.728,47.2305 130,44.5C 128.644,43.6198 127.144,43.2865 125.5,43.5C 124.64,31.7614 123.807,20.0948 123,8.5C 125.333,10.5 127.667,12.5 130,14.5C 130.373,16.6982 130.873,18.8649 131.5,21C 130.5,22.6667 129.5,24.3333 128.5,26C 129.571,31.6435 132.071,36.4768 136,40.5C 137.011,41.3366 138.178,41.67 139.5,41.5C 139.222,43.3464 139.889,44.6798 141.5,45.5C 143.409,44.6518 145.409,44.3184 147.5,44.5C 147.928,50.1763 148.095,55.843 148,61.5C 147.147,63.6031 145.98,63.6031 144.5,61.5 Z"/></g>
<g><path style="opacity:1" fill="#f5f5f6" d="M 101.5,3.5 C 106.844,3.33398 112.177,3.50065 117.5,4C 118.333,4.83333 119.167,5.66667 120,6.5C 121.918,19.1938 122.751,31.8604 122.5,44.5C 116.223,38.2393 112.889,39.5726 112.5,48.5C 108.381,45.2397 104.048,42.0731 99.5,39C 95.8333,38.6667 92.1667,38.3333 88.5,38C 82.584,29.0407 74.2506,24.2074 63.5,23.5C 63.3342,18.8215 63.5008,14.1548 64,9.5C 64.5,9 65,8.5 65.5,8C 77.5744,6.25183 89.5744,4.75183 101.5,3.5 Z"/></g>
<g><path style="opacity:1" fill="#ff7275" d="M 105.5,26.5 C 108.66,28.4608 111.994,29.1275 115.5,28.5C 114.062,31.0835 114.396,33.4168 116.5,35.5C 113.255,36.1229 110.755,37.7896 109,40.5C 107.581,37.7044 105.415,35.7044 102.5,34.5C 104.865,32.4123 105.865,29.7456 105.5,26.5 Z"/></g>
<g><path style="opacity:1" fill="#191919" d="M 87.5,20.5 C 90.6727,20.4012 93.6727,21.0678 96.5,22.5C 98.1347,21.9537 99.8014,21.6204 101.5,21.5C 101.67,22.8221 101.337,23.9887 100.5,25C 96.6995,25.9802 93.1995,27.4802 90,29.5C 86.5593,28.3114 83.0593,27.3114 79.5,26.5C 78.6143,25.675 78.281,24.675 78.5,23.5C 82.1547,24.075 85.1547,23.075 87.5,20.5 Z"/></g>
<g><path style="opacity:1" fill="#e8dada" d="M 88.5,23.5 C 92.9989,23.9353 93.3322,24.9353 89.5,26.5C 87.1966,26.1237 86.8632,25.1237 88.5,23.5 Z"/></g>
<g><path style="opacity:1" fill="#181818" d="M 73.5,15.5 C 78.5867,15.2845 79.5867,17.1178 76.5,21C 72.5369,21.1177 71.5369,19.2843 73.5,15.5 Z"/></g>
<g><path style="opacity:0.998" fill="#111010" d="M 102.5,12.5 C 105.966,13.109 106.966,14.9423 105.5,18C 100.289,18.5464 99.2894,16.713 102.5,12.5 Z"/></g>
<g><path style="opacity:1" fill="#fbc51f" d="M 144.5,61.5 C 141.098,61.3424 137.764,61.6758 134.5,62.5C 133.5,62.5 132.5,62.5 131.5,62.5C 131.5,62.1667 131.5,61.8333 131.5,61.5C 132.434,60.4324 132.768,59.099 132.5,57.5C 132.167,54.8333 131.833,52.1667 131.5,49.5C 133.677,49.5861 135.677,50.2528 137.5,51.5C 139.323,50.2528 141.323,49.5861 143.5,49.5C 143.338,51.5273 143.505,53.5273 144,55.5C 145.353,56.6853 146.52,58.0186 147.5,59.5C 146.995,60.9185 145.995,61.5852 144.5,61.5 Z"/></g>
<g><path style="opacity:1" fill="#51bcf0" d="M 28.5,45.5 C 29.5,45.5 30.5,45.5 31.5,45.5C 29.1709,56.8514 31.8376,66.8514 39.5,75.5C 31.0653,78.8535 24.5653,76.5202 20,68.5C 16.6602,58.5186 19.4936,50.8519 28.5,45.5 Z"/></g>
<g><path style="opacity:1" fill="#e9e9e9" d="M 87.5,47.5 C 88.5,47.5 89.5,47.5 90.5,47.5C 90.8174,50.5719 90.4841,53.5719 89.5,56.5C 87.9291,55.6906 86.2624,55.3573 84.5,55.5C 84.5,53.1667 84.5,50.8333 84.5,48.5C 85.791,48.7373 86.791,48.404 87.5,47.5 Z"/></g>
<g><path style="opacity:1" fill="#3f341c" d="M 118.5,51.5 C 120.975,51.7467 120.975,52.4134 118.5,53.5C 117.537,53.0302 117.537,52.3635 118.5,51.5 Z"/></g>
<g><path style="opacity:1" fill="#d8d8d8" d="M 32.5,51.5 C 38.9049,50.4062 41.2382,53.0729 39.5,59.5C 37.1933,59.9863 35.0266,59.9863 33,59.5C 32.5026,56.854 32.3359,54.1873 32.5,51.5 Z"/></g>
<g><path style="opacity:1" fill="#141414" d="M 70.5,57.5 C 71.8333,57.5 73.1667,57.5 74.5,57.5C 74.1144,61.7376 72.4477,62.4043 69.5,59.5C 69.8627,58.8165 70.1961,58.1499 70.5,57.5 Z"/></g>
<g><path style="opacity:1" fill="#1f1e1e" d="M 50.5,58.5 C 54.1612,58.3501 55.1612,59.8501 53.5,63C 50.0414,63.1454 49.0414,61.6454 50.5,58.5 Z"/></g>
<g><path style="opacity:1" fill="#42bece" d="M 83.5,57.5 C 85.7638,58.2186 88.0971,58.552 90.5,58.5C 89.8333,61.1667 89.1667,63.8333 88.5,66.5C 82.5506,66.0217 80.8839,63.0217 83.5,57.5 Z"/></g>
<g><path style="opacity:1" fill="#f5f3f1" d="M 126.5,92.5 C 125.878,93.6266 125.045,94.6266 124,95.5C 122.667,90.8333 121.333,86.1667 120,81.5C 118.093,77.9904 115.26,76.8238 111.5,78C 109.1,78.7436 106.767,79.5769 104.5,80.5C 106.097,77.559 105.763,74.8923 103.5,72.5C 108.088,69.0077 110.921,64.3411 112,58.5C 112.765,61.1959 113.932,63.6959 115.5,66C 118.994,66.8614 121.327,65.5281 122.5,62C 123.167,61.3333 123.833,61.3333 124.5,62C 126.258,67.5061 125.591,72.6728 122.5,77.5C 125.901,81.8203 127.235,86.8203 126.5,92.5 Z"/></g>
<g><path style="opacity:1" fill="#e7e7e7" d="M 131.5,62.5 C 132.5,62.5 133.5,62.5 134.5,62.5C 131.209,65.4124 129.209,69.079 128.5,73.5C 127.511,69.8927 127.177,66.226 127.5,62.5C 128.833,62.5 130.167,62.5 131.5,62.5 Z"/></g>
<g><path style="opacity:1" fill="#43bdcd" d="M 35.5,61.5 C 40.5808,61.3663 42.5808,63.6996 41.5,68.5C 38.001,71.2467 35.8343,70.2467 35,65.5C 34.4209,64.0715 34.5876,62.7382 35.5,61.5 Z"/></g>
<g><path style="opacity:0.996" fill="#2a2929" d="M 60.5,59.5 C 61.9778,59.238 63.3112,59.5713 64.5,60.5C 63.8796,62.7073 63.8796,64.7073 64.5,66.5C 62.8651,65.6698 61.1984,65.5031 59.5,66C 61.8344,64.1575 62.1677,61.9909 60.5,59.5 Z"/></g>
<g><path style="opacity:1" fill="#e64a96" d="M 149.5,66.5 C 148.789,68.0301 147.789,69.3634 146.5,70.5C 144.455,68.0156 141.788,67.0156 138.5,67.5C 137.1,66.9002 136.1,65.9002 135.5,64.5C 136.777,63.1024 138.443,62.4357 140.5,62.5C 143.916,63.0444 146.916,64.3777 149.5,66.5 Z"/></g>
<g><path style="opacity:1" fill="#dddddd" d="M 80.5,66.5 C 82.9288,66.585 84.9288,67.585 86.5,69.5C 84.8333,71.8333 82.8333,73.8333 80.5,75.5C 76.5054,72.5106 76.5054,69.5106 80.5,66.5 Z"/></g>
<g><path style="opacity:1" fill="#f5f4f2" d="M 85.5,85.5 C 74.0673,89.0827 62.4007,92.0827 50.5,94.5C 49.0712,91.6916 48.4045,88.6916 48.5,85.5C 45.1501,85.665 41.8168,85.4983 38.5,85C 35.141,82.9658 34.8076,80.6324 37.5,78C 43.2448,79.3184 48.9114,81.3184 54.5,84C 62.9694,85.4009 70.9694,84.0676 78.5,80C 82.7477,76.0748 87.2477,72.5748 92,69.5C 94.8015,70.1046 95.8015,71.7713 95,74.5C 92.0327,77.4012 88.5327,79.4012 84.5,80.5C 85.3094,82.0709 85.6427,83.7376 85.5,85.5 Z"/></g>
<g><path style="opacity:1" fill="#dbdbdb" d="M 42.5,69.5 C 49.5933,70.2129 50.9267,73.2129 46.5,78.5C 43.5677,77.2003 41.2344,75.2003 39.5,72.5C 40.7701,71.7124 41.7701,70.7124 42.5,69.5 Z"/></g>
<g><path style="opacity:1" fill="#fcc423" d="M 8.5,80.5 C 7.39105,80.5569 6.39105,80.8902 5.5,81.5C 3.16025,80.4282 2.82691,78.7615 4.5,76.5C 2.95467,75.5481 1.28801,75.2148 -0.5,75.5C -0.5,74.1667 -0.5,72.8333 -0.5,71.5C 1.2161,71.3713 2.88277,71.038 4.5,70.5C 5.65225,71.625 6.65225,71.625 7.5,70.5C 8.48224,69.8592 9.48224,69.1925 10.5,68.5C 11.95,70.9952 13.95,72.9952 16.5,74.5C 14.4153,76.8518 12.9153,79.5185 12,82.5C 11.1841,81.1772 10.0174,80.5106 8.5,80.5 Z"/></g>
<g><path style="opacity:1" fill="#e994d5" d="M 135.5,64.5 C 136.1,65.9002 137.1,66.9002 138.5,67.5C 136.016,69.5452 135.016,72.2118 135.5,75.5C 134.486,76.6737 133.153,77.3404 131.5,77.5C 129.35,72.0211 130.684,67.6878 135.5,64.5 Z"/></g>
<g><path style="opacity:1" fill="#212020" d="M 138.5,67.5 C 141.788,67.0156 144.455,68.0156 146.5,70.5C 146.606,73.6145 145.606,76.2812 143.5,78.5C 140.212,78.9844 137.545,77.9844 135.5,75.5C 135.016,72.2118 136.016,69.5452 138.5,67.5 Z"/></g>
<g><path style="opacity:1" fill="#f5f5f5" d="M 138.5,69.5 C 144.158,68.6794 145.825,70.846 143.5,76C 137.244,76.9338 135.577,74.7672 138.5,69.5 Z"/></g>
<g><path style="opacity:1" fill="#42bccc" d="M 73.5,72.5 C 76.9146,73.3638 78.248,75.3638 77.5,78.5C 75.3584,79.6005 73.1917,80.6005 71,81.5C 70.023,79.26 69.523,76.9267 69.5,74.5C 71.3797,74.7709 72.713,74.1042 73.5,72.5 Z"/></g>
<g><path style="opacity:1" fill="#42bccc" d="M 50.5,74.5 C 56.0156,74.4178 58.3489,77.0844 57.5,82.5C 54.2255,82.3647 51.2255,81.3647 48.5,79.5C 49.4565,77.9246 50.1231,76.258 50.5,74.5 Z"/></g>
<g><path style="opacity:1" fill="#ed97da" d="M 145.5,81.5 C 145.573,79.9731 144.906,78.9731 143.5,78.5C 145.606,76.2812 146.606,73.6145 146.5,70.5C 147.789,69.3634 148.789,68.0301 149.5,66.5C 149.261,64.5328 149.594,62.6995 150.5,61C 152.92,60.0851 154.253,60.9185 154.5,63.5C 152.046,67.0646 150.879,71.0646 151,75.5C 150.285,78.6411 148.452,80.6411 145.5,81.5 Z"/></g>
<g><path style="opacity:1" fill="#90ec22" d="M 22.5,82.5 C 20.5,82.5 18.5,82.5 16.5,82.5C 15.344,78.5501 17.0107,76.8834 21.5,77.5C 21.6287,79.2161 21.962,80.8828 22.5,82.5 Z"/></g>
<g><path style="opacity:1" fill="#e5e5e5" d="M 59.5,76.5 C 62.1667,76.5 64.8333,76.5 67.5,76.5C 67.3573,78.2624 67.6906,79.9291 68.5,81.5C 65.5719,82.4841 62.5719,82.8174 59.5,82.5C 59.5,80.5 59.5,78.5 59.5,76.5 Z"/></g>
<g><path style="opacity:1" fill="#e8e7e6" d="M 98.5,82.5 C 94.5467,82.7617 90.88,83.7617 87.5,85.5C 87.5792,84.0695 87.2458,82.7362 86.5,81.5C 89.9465,80.6107 92.9465,78.944 95.5,76.5C 96.2063,78.704 97.2063,80.704 98.5,82.5 Z"/></g>
<g><path style="opacity:1" fill="#ec4a9a" d="M 131.5,77.5 C 133.153,77.3404 134.486,76.6737 135.5,75.5C 137.545,77.9844 140.212,78.9844 143.5,78.5C 144.906,78.9731 145.573,79.9731 145.5,81.5C 141.009,84.1164 136.676,83.6164 132.5,80C 129.854,79.5026 127.187,79.3359 124.5,79.5C 125.101,73.6351 127.434,72.9685 131.5,77.5 Z"/></g>
<g><path style="opacity:1" fill="#e9e2d7" d="M 132.5,82.5 C 131.542,82.9528 130.708,83.6195 130,84.5C 129.802,86.3817 129.302,88.0484 128.5,89.5C 128.5,86.8333 128.5,84.1667 128.5,81.5C 130.099,81.2322 131.432,81.5655 132.5,82.5 Z"/></g>
<g><path style="opacity:1" fill="#f0eae8" d="M 151.5,103.5 C 150.842,102.602 150.176,101.602 149.5,100.5C 147.343,101.05 145.343,101.717 143.5,102.5C 142.12,102.962 141.453,103.962 141.5,105.5C 142.501,108.482 143.001,111.482 143,114.5C 141.314,111.116 139.814,107.616 138.5,104C 139.645,102.598 140.978,101.431 142.5,100.5C 143.978,100.762 145.311,100.429 146.5,99.5C 144.212,96.3519 143.878,93.0186 145.5,89.5C 144.167,89.5 142.833,89.5 141.5,89.5C 140.197,87.8577 138.864,86.1911 137.5,84.5C 142.351,85.2159 146.518,83.8825 150,80.5C 150.679,88.1593 151.179,95.826 151.5,103.5 Z"/></g>
<g><path style="opacity:1" fill="#88250a" d="M 18.5,83.5 C 19.6843,84.6879 19.6843,85.8545 18.5,87C 20.0581,87.21 21.3915,87.71 22.5,88.5C 20.3792,88.3253 18.3792,88.6586 16.5,89.5C 12.667,88.4368 12.667,87.6035 16.5,87C 17.2524,86.3292 17.5858,85.4959 17.5,84.5C 17.5,83.8333 17.8333,83.5 18.5,83.5 Z"/></g>
<g><path style="opacity:1" fill="#ee4913" d="M 18.5,83.5 C 22.5179,83.7569 26.3512,84.7569 30,86.5C 33.6552,84.6591 35.6552,85.6591 36,89.5C 35.3109,90.3567 34.4776,91.0233 33.5,91.5C 30.128,88.5148 29.128,89.0148 30.5,93C 29.1199,101.027 24.4532,104.027 16.5,102C 15.0692,101.535 13.9025,100.701 13,99.5C 12.6667,101.167 12.3333,102.833 12,104.5C 10.6667,105.833 9.33333,105.833 8,104.5C 9.80497,100.178 10.805,95.5114 11,90.5C 11.7542,86.9106 13.9209,84.9106 17.5,84.5C 17.5858,85.4959 17.2524,86.3292 16.5,87C 12.667,87.6035 12.667,88.4368 16.5,89.5C 14.2169,94.2586 15.5503,97.2586 20.5,98.5C 24.8363,97.4985 26.3363,94.8319 25,90.5C 24.2917,89.6195 23.4584,88.9528 22.5,88.5C 21.3915,87.71 20.0581,87.21 18.5,87C 19.6843,85.8545 19.6843,84.6879 18.5,83.5 Z"/></g>
<g><path style="opacity:1" fill="#f6f5f3" d="M 46.5,89.5 C 44.3814,90.7912 42.7147,92.6246 41.5,95C 39.1667,95.3333 36.8333,95.6667 34.5,96C 33.6634,97.0113 33.33,98.1779 33.5,99.5C 32.1667,99.8333 30.8333,100.167 29.5,100.5C 30.7736,98.0075 31.4403,95.3408 31.5,92.5C 35.7166,92.7851 37.8832,90.7851 38,86.5C 41.2544,86.838 44.0877,87.838 46.5,89.5 Z"/></g>
<g><path style="opacity:1" fill="#191413" d="M 22.5,88.5 C 23.4584,88.9528 24.2917,89.6195 25,90.5C 26.3363,94.8319 24.8363,97.4985 20.5,98.5C 15.5503,97.2586 14.2169,94.2586 16.5,89.5C 18.3792,88.6586 20.3792,88.3253 22.5,88.5 Z"/></g>
<g><path style="opacity:1" fill="#ebecec" d="M 18.5,89.5 C 23.2137,89.2008 24.8804,91.2008 23.5,95.5C 16.6061,97.6124 14.9395,95.6124 18.5,89.5 Z"/></g>
<g><path style="opacity:1" fill="#ff7278" d="M 141.5,89.5 C 142.833,89.5 144.167,89.5 145.5,89.5C 143.878,93.0186 144.212,96.3519 146.5,99.5C 145.311,100.429 143.978,100.762 142.5,100.5C 143.959,96.6685 143.625,93.0018 141.5,89.5 Z"/></g>
<g><path style="opacity:1" fill="#9bf627" d="M 46.5,89.5 C 47.5375,90.9303 48.2041,92.597 48.5,94.5C 43.7713,96.7868 38.7713,98.4534 33.5,99.5C 33.33,98.1779 33.6634,97.0113 34.5,96C 36.8333,95.6667 39.1667,95.3333 41.5,95C 42.7147,92.6246 44.3814,90.7912 46.5,89.5 Z"/></g>
<g><path style="opacity:1" fill="#ffc848" d="M 151.5,103.5 C 151.5,103.833 151.5,104.167 151.5,104.5C 148.996,103.361 146.33,102.694 143.5,102.5C 145.343,101.717 147.343,101.05 149.5,100.5C 150.176,101.602 150.842,102.602 151.5,103.5 Z"/></g>
<g><path style="opacity:1" fill="#f4f2f1" d="M 18.5,104.5 C 17.849,108.6 18.5157,112.6 20.5,116.5C 17.3703,114.977 14.037,114.311 10.5,114.5C 9.63471,109.56 11.3014,105.893 15.5,103.5C 16.4168,104.127 17.4168,104.461 18.5,104.5 Z"/></g>
<g><path style="opacity:0.984" fill="#f3ec01" d="M 10.5,117.5 C 11.0431,117.56 11.3764,117.893 11.5,118.5C 10.3349,119.584 9.00158,120.417 7.5,121C 8.0442,121.717 8.71087,122.217 9.5,122.5C 8.962,124.117 8.62867,125.784 8.5,127.5C 7.60592,129.308 6.60592,131.142 5.5,133C 5.56993,133.765 5.90326,134.265 6.5,134.5C 6.64945,135.552 6.48278,136.552 6,137.5C 3.83333,139 2.33333,138.5 1.5,136C 3.83702,131.821 5.00368,127.321 5,122.5C 6.07568,119.921 7.90902,118.254 10.5,117.5 Z"/></g>
<g><path style="opacity:0.649" fill="#181403" d="M 8.5,127.5 C 8.62867,125.784 8.962,124.117 9.5,122.5C 14.4707,119.075 17.804,120.241 19.5,126C 18.9757,129.355 16.9757,131.188 13.5,131.5C 11.2127,130.873 9.54604,129.54 8.5,127.5 Z M 11.5,123.5 C 17.1402,126.138 16.8069,127.471 10.5,127.5C 10.4326,126.041 10.7659,124.708 11.5,123.5 Z"/></g>
<g><path style="opacity:1" fill="#d54705" d="M 157.5,112.5 C 158.167,112.833 158.833,113.167 159.5,113.5C 159.5,114.833 159.5,116.167 159.5,117.5C 158.167,119.5 156.833,121.5 155.5,123.5C 153.845,125.986 151.678,127.986 149,129.5C 146.234,127.985 143.734,128.318 141.5,130.5C 140.261,130.058 139.261,129.391 138.5,128.5C 149.124,128.206 155.457,122.873 157.5,112.5 Z"/></g>
<g><path style="opacity:1" fill="#edcd01" d="M 10.5,117.5 C 13.3623,116.319 16.3623,116.319 19.5,117.5C 19.7828,118.289 20.2828,118.956 21,119.5C 21.499,123.821 21.6657,128.154 21.5,132.5C 17.8453,131.925 14.8453,132.925 12.5,135.5C 10.321,135.16 8.48765,134.16 7,132.5C 6.53566,133.094 6.36899,133.761 6.5,134.5C 5.90326,134.265 5.56993,133.765 5.5,133C 6.60592,131.142 7.60592,129.308 8.5,127.5C 9.54604,129.54 11.2127,130.873 13.5,131.5C 16.9757,131.188 18.9757,129.355 19.5,126C 17.804,120.241 14.4707,119.075 9.5,122.5C 8.71087,122.217 8.0442,121.717 7.5,121C 9.00158,120.417 10.3349,119.584 11.5,118.5C 11.3764,117.893 11.0431,117.56 10.5,117.5 Z"/></g>
<g><path style="opacity:0.598" fill="#161413" d="M 155.5,123.5 C 155.66,125.199 155.494,126.866 155,128.5C 149.875,134.062 147.041,140.395 146.5,147.5C 141.055,152.149 134.722,154.315 127.5,154C 124.735,152.903 123.069,150.903 122.5,148C 120.1,147.814 117.766,147.314 115.5,146.5C 114.827,142.965 113.327,142.632 111,145.5C 108.099,144.763 105.932,143.097 104.5,140.5C 105.833,140.833 107.167,141.167 108.5,141.5C 110.586,143.023 112.252,142.69 113.5,140.5C 116.124,139.041 118.458,137.375 120.5,135.5C 125.676,131.216 131.676,128.883 138.5,128.5C 139.261,129.391 140.261,130.058 141.5,130.5C 143.734,128.318 146.234,127.985 149,129.5C 151.678,127.986 153.845,125.986 155.5,123.5 Z"/></g>
<g><path style="opacity:0.999" fill="#edeced" d="M 134.5,129.5 C 138.592,129.591 141.259,131.591 142.5,135.5C 143.452,133.955 143.785,132.288 143.5,130.5C 144.833,130.5 146.167,130.5 147.5,130.5C 146.857,133.325 145.523,135.825 143.5,138C 145.8,143.393 144.467,147.393 139.5,150C 135.738,152.156 131.738,152.823 127.5,152C 125.919,150.172 124.585,148.172 123.5,146C 121.323,144.798 118.989,144.298 116.5,144.5C 116.5,143.167 116.5,141.833 116.5,140.5C 118.903,140.393 120.736,141.393 122,143.5C 121.626,141.231 121.626,138.898 122,136.5C 125.728,133.223 129.895,130.89 134.5,129.5 Z"/></g>
<g><path style="opacity:1" fill="#f27717" d="M 126.5,92.5 C 128.048,92.1788 128.715,91.1788 128.5,89.5C 129.302,88.0484 129.802,86.3817 130,84.5C 130.708,83.6195 131.542,82.9528 132.5,82.5C 134.284,82.8925 135.95,83.5592 137.5,84.5C 138.864,86.1911 140.197,87.8577 141.5,89.5C 143.625,93.0018 143.959,96.6685 142.5,100.5C 140.978,101.431 139.645,102.598 138.5,104C 139.814,107.616 141.314,111.116 143,114.5C 143.001,111.482 142.501,108.482 141.5,105.5C 141.453,103.962 142.12,102.962 143.5,102.5C 146.33,102.694 148.996,103.361 151.5,104.5C 152.609,104.557 153.609,104.89 154.5,105.5C 156.312,107.461 157.312,109.794 157.5,112.5C 155.457,122.873 149.124,128.206 138.5,128.5C 131.676,128.883 125.676,131.216 120.5,135.5C 119.518,134.859 118.518,134.193 117.5,133.5C 113.386,137.028 108.719,138.028 103.5,136.5C 98.7719,138.574 94.1052,140.741 89.5,143C 87.6226,143.576 85.7892,143.409 84,142.5C 82.3333,143.5 80.6667,144.5 79,145.5C 77.5272,145.097 76.1939,144.43 75,143.5C 73.4708,144.729 72.3041,146.229 71.5,148C 69.5355,148.624 67.8689,148.124 66.5,146.5C 65.6184,147.76 64.6184,148.926 63.5,150C 57.3493,151.579 51.1827,153.079 45,154.5C 43.2355,153.368 41.4021,152.368 39.5,151.5C 38.9023,147.778 37.9023,144.111 36.5,140.5C 35.962,138.883 35.6287,137.216 35.5,135.5C 35.853,133.365 35.0197,132.032 33,131.5C 31.9701,131.836 31.4701,132.503 31.5,133.5C 28.03,134.803 24.6967,134.469 21.5,132.5C 21.6657,128.154 21.499,123.821 21,119.5C 20.2828,118.956 19.7828,118.289 19.5,117.5C 20.1667,117.5 20.5,117.167 20.5,116.5C 18.5157,112.6 17.849,108.6 18.5,104.5C 22.699,104.564 26.3657,103.231 29.5,100.5C 30.8333,100.167 32.1667,99.8333 33.5,99.5C 38.7713,98.4534 43.7713,96.7868 48.5,94.5C 49.1667,94.5 49.8333,94.5 50.5,94.5C 62.4007,92.0827 74.0673,89.0827 85.5,85.5C 86.1667,85.5 86.8333,85.5 87.5,85.5C 90.88,83.7617 94.5467,82.7617 98.5,82.5C 100.579,82.0293 102.579,81.3627 104.5,80.5C 106.767,79.5769 109.1,78.7436 111.5,78C 115.26,76.8238 118.093,77.9904 120,81.5C 121.333,86.1667 122.667,90.8333 124,95.5C 125.045,94.6266 125.878,93.6266 126.5,92.5 Z"/></g>
<g><path style="opacity:1" fill="#fff4ea" d="M 51.5,123.5 C 53.4918,123.328 55.1585,123.995 56.5,125.5C 58.0709,124.691 59.7376,124.357 61.5,124.5C 61.67,125.822 61.3366,126.989 60.5,128C 58.2199,128.233 56.2199,129.066 54.5,130.5C 54.6667,130.833 54.8333,131.167 55,131.5C 57.3822,130.446 59.8822,129.779 62.5,129.5C 62.822,131.722 62.1554,133.556 60.5,135C 61.7932,135.49 63.1266,135.657 64.5,135.5C 64.2137,137.277 63.5471,138.944 62.5,140.5C 64.8827,146.615 63.0493,148.615 57,146.5C 57.5948,144.65 58.0948,142.65 58.5,140.5C 56.6412,140.539 55.3079,139.706 54.5,138C 56.1667,137 57.5,135.667 58.5,134C 57.2161,133.316 56.0495,133.483 55,134.5C 53.274,132.089 51.1073,131.422 48.5,132.5C 49.9905,133.244 51.4905,133.91 53,134.5C 54.3267,139.12 54.9934,143.787 55,148.5C 53.6667,149.833 52.3333,149.833 51,148.5C 49.5293,150.902 48.0293,150.736 46.5,148C 48.264,141.888 47.0973,136.388 43,131.5C 41.0985,132.386 39.2651,132.053 37.5,130.5C 39.0347,126.926 41.2013,126.592 44,129.5C 44.1962,127.714 45.0295,126.381 46.5,125.5C 47.8498,126.95 49.5165,127.617 51.5,127.5C 51.5,126.167 51.5,124.833 51.5,123.5 Z"/></g>
<g><path style="opacity:1" fill="#fef6ef" d="M 101.5,120.5 C 103.63,122.127 105.63,123.96 107.5,126C 106.646,127.022 105.646,127.855 104.5,128.5C 103.52,127.019 102.353,125.685 101,124.5C 100.421,123.072 100.588,121.738 101.5,120.5 Z"/></g>
<g><path style="opacity:1" fill="#fef7f1" d="M 30.5,121.5 C 34.5,121.5 38.5,121.5 42.5,121.5C 42.5,122.833 42.5,124.167 42.5,125.5C 38.5,125.5 34.5,125.5 30.5,125.5C 30.5,124.167 30.5,122.833 30.5,121.5 Z"/></g>
<g><path style="opacity:1" fill="#fff5ec" d="M 67.5,120.5 C 68.9778,120.238 70.3112,120.571 71.5,121.5C 72.027,126.799 73.6936,131.632 76.5,136C 76.1333,138.244 75.1333,138.744 73.5,137.5C 72.4235,139.987 71.0902,142.32 69.5,144.5C 68.1667,143.833 67.1667,142.833 66.5,141.5C 67.9761,139.58 68.9761,137.413 69.5,135C 68.2931,132.734 66.6264,130.901 64.5,129.5C 65.4033,127.38 66.7367,127.046 68.5,128.5C 69.3857,127.675 69.719,126.675 69.5,125.5C 67.5328,125.261 65.6995,125.594 64,126.5C 62.8118,125.437 62.3118,124.103 62.5,122.5C 64.5529,122.598 66.2196,121.931 67.5,120.5 Z"/></g>
<g><path style="opacity:1" fill="#fff7f0" d="M 80.5,116.5 C 81.9217,116.709 83.255,117.209 84.5,118C 85.8333,118.667 85.8333,119.333 84.5,120C 88.5,121.667 88.5,123.333 84.5,125C 85.624,125.249 86.624,125.749 87.5,126.5C 85.9956,129.467 85.6622,132.467 86.5,135.5C 87.1667,134.5 87.8333,133.5 88.5,132.5C 90.4461,134.044 90.9461,136.044 90,138.5C 87.4082,139.982 85.0749,139.648 83,137.5C 81.5784,139.638 79.745,140.805 77.5,141C 77.0426,140.586 76.7093,140.086 76.5,139.5C 77.8333,137.833 79.1667,136.167 80.5,134.5C 79.5,132.5 78.5,130.5 77.5,128.5C 76.3112,127.571 74.9778,127.238 73.5,127.5C 73.4802,125.857 74.1468,124.524 75.5,123.5C 74.233,121.629 74.233,119.796 75.5,118C 76.3317,117.312 76.9984,117.479 77.5,118.5C 77.977,122.317 79.6437,123.15 82.5,121C 79.715,120.274 79.0484,118.774 80.5,116.5 Z"/></g>
<g><path style="opacity:1" fill="#f47b23" d="M 80.5,125.5 C 81.5,125.5 82.5,125.5 83.5,125.5C 82.9407,130.639 81.9407,130.639 80.5,125.5 Z"/></g>
<g><path style="opacity:1" fill="#fff5ed" d="M 93.5,113.5 C 94.5,113.5 95.5,113.5 96.5,113.5C 98.0133,120.553 99.68,127.553 101.5,134.5C 100.07,134.579 98.7362,134.246 97.5,133.5C 96.6143,134.325 96.281,135.325 96.5,136.5C 95.1667,136.5 93.8333,136.5 92.5,136.5C 91.7743,129.597 90.1077,122.931 87.5,116.5C 89.444,115.199 91.444,114.199 93.5,113.5 Z"/></g>
<g><path style="opacity:1" fill="#f47a26" d="M 94.5,125.5 C 95.6491,125.791 96.3158,126.624 96.5,128C 96.3333,128.833 96.1667,129.667 96,130.5C 94.7308,129.095 94.2308,127.429 94.5,125.5 Z"/></g>
<g><path style="opacity:1" fill="#f68133" d="M 92.5,117.5 C 93.6491,117.791 94.3158,118.624 94.5,120C 94.1667,120.833 93.8333,121.667 93.5,122.5C 92.5481,120.955 92.2148,119.288 92.5,117.5 Z"/></g>
<g><path style="opacity:1" fill="#fff5ed" d="M 104.5,109.5 C 107.95,108.756 109.616,110.09 109.5,113.5C 110.5,113.5 111.5,113.5 112.5,113.5C 112.374,115.2 111.707,116.7 110.5,118C 112.547,122.684 113.713,127.518 114,132.5C 111.379,134 108.712,134.334 106,133.5C 105.517,132.552 105.351,131.552 105.5,130.5C 106.833,130.5 108.167,130.5 109.5,130.5C 108.705,126.524 108.038,122.524 107.5,118.5C 104.482,118.704 101.482,119.037 98.5,119.5C 98.281,118.325 98.6143,117.325 99.5,116.5C 101.382,115.907 103.215,115.24 105,114.5C 104.981,112.893 104.815,111.226 104.5,109.5 Z"/></g>
<g><path style="opacity:1" fill="#fff3e9" d="M 144.5,105.5 C 148.008,106.504 151.174,108.171 154,110.5C 154.617,113.035 154.117,115.368 152.5,117.5C 151.998,118.521 151.332,118.688 150.5,118C 151.406,116.301 151.739,114.467 151.5,112.5C 150.5,112.5 149.5,112.5 148.5,112.5C 149.329,115.469 149.495,118.469 149,121.5C 145.621,124.49 143.955,123.824 144,119.5C 145.298,118.44 146.465,117.274 147.5,116C 146.574,112.459 145.574,108.959 144.5,105.5 Z"/></g>
<g><path style="opacity:1" fill="#fff3ea" d="M 65.5,105.5 C 67.1439,105.286 68.6439,105.62 70,106.5C 71.1163,109.82 71.783,113.153 72,116.5C 70.5589,117.26 69.0589,117.926 67.5,118.5C 64.9557,117.265 64.9557,116.099 67.5,115C 65.5116,114.82 63.5116,114.986 61.5,115.5C 61.5,117.167 61.5,118.833 61.5,120.5C 60.325,120.719 59.325,120.386 58.5,119.5C 57.5,116.167 56.5,112.833 55.5,109.5C 58.7859,107.855 62.1193,106.522 65.5,105.5 Z"/></g>
<g><path style="opacity:1" fill="#f59138" d="M 62.5,111.5 C 67.6935,111.589 67.6935,112.255 62.5,113.5C 61.8333,113.333 61.1667,113.167 60.5,113C 61.4158,112.722 62.0825,112.222 62.5,111.5 Z"/></g>
<g><path style="opacity:1" fill="#f9a55d" d="M 65.5,107.5 C 66.6921,108.566 66.3588,109.399 64.5,110C 62.8333,110.667 61.1667,110.667 59.5,110C 61.6115,109.155 63.6115,108.322 65.5,107.5 Z"/></g>
<g><path style="opacity:1" fill="#fff4eb" d="M 122.5,104.5 C 123.833,104.5 125.167,104.5 126.5,104.5C 126.674,106.861 127.007,109.194 127.5,111.5C 128.873,111.657 130.207,111.49 131.5,111C 130.572,110.612 129.905,109.945 129.5,109C 130.148,107.56 130.481,106.06 130.5,104.5C 135.69,103.935 136.69,105.602 133.5,109.5C 135.045,110.452 136.712,110.785 138.5,110.5C 138.5,111.5 138.5,112.5 138.5,113.5C 136.5,113.833 134.5,114.167 132.5,114.5C 132.655,117.609 133.322,120.609 134.5,123.5C 136.217,122.332 136.884,120.665 136.5,118.5C 141.068,118.083 142.568,120.083 141,124.5C 138.63,126.117 135.964,127.117 133,127.5C 132.228,127.355 131.561,127.022 131,126.5C 129.857,123.223 129.023,119.89 128.5,116.5C 127.5,116.5 126.5,116.5 125.5,116.5C 126.475,122.084 125.142,126.917 121.5,131C 119.609,131.309 118.275,130.475 117.5,128.5C 120.917,126.074 122.25,122.741 121.5,118.5C 119.139,118.674 116.806,119.007 114.5,119.5C 114.5,118.167 114.5,116.833 114.5,115.5C 115.978,115.762 117.311,115.429 118.5,114.5C 117.5,112.833 116.167,111.5 114.5,110.5C 116.337,107.023 118.504,107.023 121,110.5C 121.492,111.549 121.326,112.549 120.5,113.5C 121.274,114.711 122.107,114.711 123,113.5C 123.301,110.493 123.135,107.493 122.5,104.5 Z"/></g>
<g><path style="opacity:1" fill="#fff5ed" d="M 39.5,100.5 C 40.7498,100.577 41.5831,101.244 42,102.5C 42.567,105.168 43.067,107.834 43.5,110.5C 42.325,110.281 41.325,110.614 40.5,111.5C 42.6725,114.172 45.0058,116.672 47.5,119C 47.2196,120.395 46.5529,121.562 45.5,122.5C 43.0069,120.84 40.8402,118.84 39,116.5C 38.1667,117.5 37.3333,118.5 36.5,119.5C 34.1463,118.94 31.813,118.273 29.5,117.5C 29.8655,116.098 30.6988,115.098 32,114.5C 33.8822,115.606 35.7156,115.606 37.5,114.5C 37.2907,113.914 36.9574,113.414 36.5,113C 33.4929,112.699 30.4929,112.865 27.5,113.5C 28.1266,118.141 28.4599,122.807 28.5,127.5C 23.3779,127.372 22.0446,125.039 24.5,120.5C 23.6538,115.452 22.6538,110.452 21.5,105.5C 27.7095,104.202 33.7095,102.536 39.5,100.5 Z"/></g>
<g><path style="opacity:1" fill="#f68335" d="M 36.5,105.5 C 37.3764,105.369 38.0431,105.702 38.5,106.5C 34.9368,109.583 30.9368,110.583 26.5,109.5C 26.7093,108.914 27.0426,108.414 27.5,108C 30.678,107.34 33.678,106.507 36.5,105.5 Z"/></g>
<g><path style="opacity:1" fill="#f8a35a" d="M 91.5,95.5 C 92.404,96.209 92.7373,97.209 92.5,98.5C 85.8199,99.7468 79.4866,101.747 73.5,104.5C 72.5489,103.081 72.2155,101.415 72.5,99.5C 73.2613,100.391 74.2613,101.058 75.5,101.5C 80.3621,100.268 85.1954,98.9348 90,97.5C 91.0299,97.1639 91.5299,96.4972 91.5,95.5 Z"/></g>
<g><path style="opacity:1" fill="#fff4ec" d="M 92.5,98.5 C 93.7994,100.153 93.4661,101.653 91.5,103C 92.6716,103.353 93.8382,103.187 95,102.5C 96.2798,102.613 97.1131,103.28 97.5,104.5C 94.5108,106.662 91.1774,107.662 87.5,107.5C 87.5,109.5 87.5,111.5 87.5,113.5C 84.8333,113.833 82.1667,114.167 79.5,114.5C 79.5,113.5 79.5,112.5 79.5,111.5C 81.1033,111.688 82.4366,111.188 83.5,110C 82.8333,109.833 82.1667,109.667 81.5,109.5C 78.6727,110.932 75.6727,111.599 72.5,111.5C 72.281,110.325 72.6143,109.325 73.5,108.5C 77.7683,107.604 81.7683,106.104 85.5,104C 82.1182,103.841 78.7849,104.341 75.5,105.5C 74.5836,105.457 73.9169,105.124 73.5,104.5C 79.4866,101.747 85.8199,99.7468 92.5,98.5 Z"/></g>
<g><path style="opacity:1" fill="#fff1e6" d="M 53.5,104.5 C 52.6236,104.369 51.9569,104.702 51.5,105.5C 54.3404,110.798 55.3404,116.298 54.5,122C 53.5165,122.591 52.8499,122.257 52.5,121C 51.4111,116.811 50.2445,112.644 49,108.5C 46.8779,112.374 45.7112,111.874 45.5,107C 45.8266,105.187 46.4933,103.52 47.5,102C 45.8421,98.8241 46.8421,97.3241 50.5,97.5C 51.4457,103.126 54.1124,103.96 58.5,100C 56.5116,99.8195 54.5116,99.9862 52.5,100.5C 52.5,99.5 52.5,98.5 52.5,97.5C 55.513,97.6283 58.013,96.6283 60,94.5C 61.8077,95.6901 63.641,95.6901 65.5,94.5C 66.9317,94.7332 67.4317,95.3999 67,96.5C 65.4905,97.0897 63.9905,97.7564 62.5,98.5C 64.1173,98.6694 65.784,99.0028 67.5,99.5C 65.7256,100.187 64.0589,101.02 62.5,102C 64.8859,101.649 67.2192,101.815 69.5,102.5C 64.3973,104.778 59.0639,106.445 53.5,107.5C 53.5,106.5 53.5,105.5 53.5,104.5 Z"/></g>
<g><path style="opacity:1" fill="#f79641" d="M 53.5,104.5 C 55.2251,103.095 57.2251,102.595 59.5,103C 57.7505,104.319 55.7505,104.819 53.5,104.5 Z"/></g>
<g><path style="opacity:1" fill="#fef7f1" d="M 91.5,95.5 C 91.5299,96.4972 91.0299,97.1639 90,97.5C 85.1954,98.9348 80.3621,100.268 75.5,101.5C 74.2613,101.058 73.2613,100.391 72.5,99.5C 72.4142,98.5041 72.7476,97.6708 73.5,97C 79.519,95.4952 85.519,93.9952 91.5,92.5C 91.5,93.5 91.5,94.5 91.5,95.5 Z"/></g>
<g><path style="opacity:1" fill="#f6913a" d="M 83.5,95.5 C 84.8734,95.3433 86.2068,95.51 87.5,96C 83.8033,97.6796 80.1366,98.5129 76.5,98.5C 78.875,97.3395 81.2083,96.3395 83.5,95.5 Z"/></g>
<g><path style="opacity:1" fill="#ffefe1" d="M 89.5,87.5 C 92.694,87.1756 93.694,88.3422 92.5,91C 85.239,92.4403 78.0723,94.2736 71,96.5C 69.7202,96.3865 68.8869,95.7199 68.5,94.5C 71.8273,93.0005 75.1607,91.5005 78.5,90C 82.4302,89.7585 86.0968,88.9251 89.5,87.5 Z"/></g>
<g><path style="opacity:1" fill="#fff2e7" d="M 132.5,85.5 C 134.74,86.5676 136.574,88.2342 138,90.5C 139.246,94.8807 137.746,97.3807 133.5,98C 135.884,95.9757 136.051,93.8091 134,91.5C 133.178,93.7885 132.511,96.1218 132,98.5C 130.556,100.155 128.722,100.822 126.5,100.5C 125.833,96.5 127.5,94.8333 131.5,95.5C 132.051,92.1933 132.384,88.8599 132.5,85.5 Z"/></g>
<g><path style="opacity:1" fill="#fff3e8" d="M 112.5,80.5 C 113.822,80.33 114.989,80.6634 116,81.5C 115.981,83.1075 115.815,84.7741 115.5,86.5C 116.5,86.5 117.5,86.5 118.5,86.5C 118.421,87.9305 118.754,89.2638 119.5,90.5C 112.779,90.8012 106.445,92.4679 100.5,95.5C 105.302,95.7156 110.136,95.0489 115,93.5C 116.28,93.6135 117.113,94.2801 117.5,95.5C 116.833,96.8333 116.167,98.1667 115.5,99.5C 117.771,100.363 120.105,100.363 122.5,99.5C 122.714,101.144 122.38,102.644 121.5,104C 117.5,104.333 113.5,104.667 109.5,105C 106.995,106.753 104.329,108.253 101.5,109.5C 100.167,108.833 99.1667,107.833 98.5,106.5C 100.667,105.052 103,103.885 105.5,103C 102.387,101.122 99.3875,99.2884 96.5,97.5C 94.9922,94.8599 95.3256,92.5266 97.5,90.5C 96.675,89.6143 95.675,89.281 94.5,89.5C 94.5,88.5 94.5,87.5 94.5,86.5C 100.883,85.4102 106.883,83.4102 112.5,80.5 Z"/></g>
<g><path style="opacity:1" fill="#f27d27" d="M 108.5,97.5 C 113.508,97.3557 113.674,98.3557 109,100.5C 105.963,99.6802 105.796,98.6802 108.5,97.5 Z"/></g>
<g><path style="opacity:1" fill="#f47721" d="M 101.5,89.5 C 102.386,88.2241 103.386,88.2241 104.5,89.5C 103.575,90.5624 102.575,90.5624 101.5,89.5 Z"/></g>
<g><path style="opacity:1" fill="#f37323" d="M 109.5,85.5 C 111.048,85.8212 111.715,86.8212 111.5,88.5C 108.752,88.5983 108.086,87.5983 109.5,85.5 Z"/></g>
<g><path style="opacity:1" fill="#e0cdc7" d="M 35.5,135.5 C 34.3951,134.4 33.0618,133.733 31.5,133.5C 31.4701,132.503 31.9701,131.836 33,131.5C 35.0197,132.032 35.853,133.365 35.5,135.5 Z"/></g>
<g><path style="opacity:1" fill="#fff3ea" d="M 39.5,134.5 C 40.8734,134.343 42.2068,134.51 43.5,135C 44.6745,137.829 43.6745,138.829 40.5,138C 39.6634,136.989 39.33,135.822 39.5,134.5 Z"/></g>
<g><path style="opacity:1" fill="#dbcbc4" d="M 108.5,141.5 C 109.919,140.549 111.585,140.216 113.5,140.5C 112.252,142.69 110.586,143.023 108.5,141.5 Z"/></g>
<g><path style="opacity:1" fill="#fefbf8" d="M 42.5,140.5 C 43.5,140.5 44.5,140.5 45.5,140.5C 45.8204,143.898 45.487,147.232 44.5,150.5C 43.914,150.291 43.414,149.957 43,149.5C 42.502,146.518 42.3354,143.518 42.5,140.5 Z"/></g>
<g><path style="opacity:1" fill="#f58633" d="M 49.5,137.5 C 51.045,138.23 51.8784,139.563 52,141.5C 52.7805,142.944 52.6139,144.277 51.5,145.5C 50.6185,142.87 49.9519,140.203 49.5,137.5 Z"/></g>
<g><path style="opacity:1" fill="#272522" d="M 129.5,137.5 C 131.425,135.538 133.758,134.705 136.5,135C 138.289,138.043 139.456,141.209 140,144.5C 132.837,149.767 128.337,148.1 126.5,139.5C 127.005,138.081 128.005,137.415 129.5,137.5 Z"/></g>
<g><path style="opacity:1" fill="#0ca769" d="M 133.5,142.5 C 134.922,142.709 136.255,143.209 137.5,144C 135.598,145.301 133.598,145.968 131.5,146C 132.305,144.887 132.972,143.721 133.5,142.5 Z"/></g>
<g><path style="opacity:1" fill="#e4e202" d="M 135.5,137.5 C 136.947,138.622 137.947,140.122 138.5,142C 134.891,142.226 133.891,140.726 135.5,137.5 Z"/></g>
<g><path style="opacity:1" fill="#26b7ef" d="M 128.5,140.5 C 131.275,140.834 131.941,142.167 130.5,144.5C 129.295,143.423 128.628,142.09 128.5,140.5 Z"/></g>
<g><path style="opacity:1" fill="#e15410" d="M 129.5,137.5 C 134.383,135.41 135.383,136.41 132.5,140.5C 130.787,140.121 129.787,139.121 129.5,137.5 Z"/></g>
<g><path style="opacity:0.016" fill="#f67503" d="M 34.5,144.5 C 35.5735,145.251 35.7401,146.251 35,147.5C 34.5172,146.552 34.3505,145.552 34.5,144.5 Z"/></g>
<g><path style="opacity:1" fill="#efdb00" d="M 12.5,135.5 C 19.4527,134.749 26.4527,134.749 33.5,135.5C 33.8825,140.468 32.2159,141.468 28.5,138.5C 29.1737,142.894 28.1737,147.061 25.5,151C 20.7946,154.489 16.2946,154.323 12,150.5C 11.5045,152.473 11.3379,154.473 11.5,156.5C 5.87562,156.136 5.04229,153.803 9,149.5C 8.79681,144.379 9.96347,139.712 12.5,135.5 Z M 16.5,140.5 C 14.5564,144.116 15.5564,146.116 19.5,146.5C 19.5,145.5 19.5,144.5 19.5,143.5C 20.552,143.649 21.552,143.483 22.5,143C 21.0217,140.961 19.0217,140.128 16.5,140.5 Z"/></g>
<g><path style="opacity:0.619" fill="#0f0b01" d="M 16.5,138.5 C 23.6275,138.706 25.2942,141.873 21.5,148C 14.7632,149.433 12.4299,146.933 14.5,140.5C 15.5,140.167 16.1667,139.5 16.5,138.5 Z M 16.5,140.5 C 14.5564,144.116 15.5564,146.116 19.5,146.5C 19.5,145.5 19.5,144.5 19.5,143.5C 20.552,143.649 21.552,143.483 22.5,143C 21.0217,140.961 19.0217,140.128 16.5,140.5 Z"/></g>
<g><path style="opacity:1" fill="#685406" d="M 16.5,138.5 C 16.1667,139.5 15.5,140.167 14.5,140.5C 14.3893,139.883 14.056,139.383 13.5,139C 14.7014,138.097 15.5348,136.931 16,135.5C 16.4828,136.448 16.6495,137.448 16.5,138.5 Z"/></g>
<g><path style="opacity:0.004" fill="#321000" d="M 85.5,146.5 C 84.0652,147.913 83.0652,149.58 82.5,151.5C 82.3398,149.801 82.5065,148.134 83,146.5C 83.9772,145.226 84.8106,145.226 85.5,146.5 Z"/></g>
<g><path style="opacity:0.973" fill="#d03f00" d="M 120.5,135.5 C 118.458,137.375 116.124,139.041 113.5,140.5C 111.585,140.216 109.919,140.549 108.5,141.5C 107.167,141.167 105.833,140.833 104.5,140.5C 100.925,141.896 97.2586,143.063 93.5,144C 91.3312,146.203 88.6646,147.036 85.5,146.5C 84.8106,145.226 83.9772,145.226 83,146.5C 82.5065,148.134 82.3398,149.801 82.5,151.5C 81.5,151.5 80.5,151.5 79.5,151.5C 79.5,150.5 79.5,149.5 79.5,148.5C 78.0695,148.579 76.7362,148.246 75.5,147.5C 74.6184,148.76 73.6184,149.926 72.5,151C 63.9982,153.795 55.3316,156.295 46.5,158.5C 42.4689,157.687 40.1356,155.354 39.5,151.5C 41.4021,152.368 43.2355,153.368 45,154.5C 51.1827,153.079 57.3493,151.579 63.5,150C 64.6184,148.926 65.6184,147.76 66.5,146.5C 67.8689,148.124 69.5355,148.624 71.5,148C 72.3041,146.229 73.4708,144.729 75,143.5C 76.1939,144.43 77.5272,145.097 79,145.5C 80.6667,144.5 82.3333,143.5 84,142.5C 85.7892,143.409 87.6226,143.576 89.5,143C 94.1052,140.741 98.7719,138.574 103.5,136.5C 108.719,138.028 113.386,137.028 117.5,133.5C 118.518,134.193 119.518,134.859 120.5,135.5 Z"/></g>
</svg>
